<?xml version="1.0" encoding="UTF-8" standalone="no"?>
<!-- Created with Inkscape (http://www.inkscape.org/) -->

<svg
   xmlns:dc="http://purl.org/dc/elements/1.1/"
   xmlns:cc="http://creativecommons.org/ns#"
   xmlns:rdf="http://www.w3.org/1999/02/22-rdf-syntax-ns#"
   xmlns:svg="http://www.w3.org/2000/svg"
   xmlns="http://www.w3.org/2000/svg"
   xmlns:sodipodi="http://sodipodi.sourceforge.net/DTD/sodipodi-0.dtd"
   xmlns:inkscape="http://www.inkscape.org/namespaces/inkscape"
   id="svg2"
   version="1.1"
   inkscape:version="0.91 r13725"
   width="306"
   height="224"
   viewBox="0 0 306 224"
   sodipodi:docname="ninjaface.svg">
  <metadata
     id="metadata8">
    <rdf:RDF>
      <cc:Work
         rdf:about="">
        <dc:format>image/svg+xml</dc:format>
        <dc:type
           rdf:resource="http://purl.org/dc/dcmitype/StillImage" />
        <dc:title></dc:title>
      </cc:Work>
    </rdf:RDF>
  </metadata>
  <defs
     id="defs6" />
  <sodipodi:namedview
     pagecolor="#ffffff"
     bordercolor="#666666"
     borderopacity="1"
     objecttolerance="10"
     gridtolerance="10"
     guidetolerance="10"
     inkscape:pageopacity="0"
     inkscape:pageshadow="2"
     inkscape:window-width="1920"
     inkscape:window-height="1015"
     id="namedview4"
     showgrid="false"
     inkscape:zoom="0.95098039"
     inkscape:cx="153"
     inkscape:cy="112"
     inkscape:window-x="0"
     inkscape:window-y="36"
     inkscape:window-maximized="1"
     inkscape:current-layer="svg2" />
  <g
     transform="translate(-0.35657297,2.3276859)"
     id="g3338">
    <path
       style="fill:#d3c2b8"
       d="m 231.5,222.44641 c -11.55,-0.70948 -25.05,-1.76568 -30,-2.34711 -4.95,-0.58143 -18.225,-1.74315 -29.5,-2.58161 -11.275,-0.83845 -22.975,-1.757 -26,-2.04122 -20.5386,-1.92975 -85.630691,-6.19082 -102.960669,-6.74003 L 35.578662,208.5 19.845521,188.56232 C 8.068816,173.6384 3.9773065,167.72882 3.5752491,165.06232 2.6601736,158.99342 0.60448428,110.35178 0.55088761,93.5 0.51676477,82.771151 1.3004278,70.466813 2.9296104,56.151534 L 5.3592208,34.803068 10.42961,27.732356 15.5,20.661644 31.777316,12.830822 C 40.72984,8.5238699 49.24298,5 50.695403,5 52.147827,5 56.073035,4.5473128 59.418087,3.9940284 80.56545,0.49617409 93.045422,0.06936554 130.21675,1.5727511 200.37216,4.4101703 210.40701,5.2770831 238.5,10.927359 c 42.53788,8.555542 40.24892,7.90944 45.953,12.971145 7.70309,6.835594 8.31391,7.928489 14.74736,26.386423 L 305.20062,67.5 l -1.15163,22 c -1.77205,33.85206 -6.34265,77.45553 -12.31347,117.47055 l -1.26394,8.47055 -4.48579,1.1623 c -12.42912,3.22047 -30.78692,7.38126 -32.05296,7.26478 -0.78806,-0.0725 -10.88283,-0.71229 -22.43283,-1.42177 z"
       id="path3364"
       inkscape:connector-curvature="0" />
    <path
       style="fill:#c7aaa0"
       d="m 235.5,222.29888 c -9.55627,-0.65102 -51.04505,-4.42917 -58.5,-5.32727 -4.125,-0.49694 -16.725,-1.39121 -28,-1.98727 -11.275,-0.59606 -28.6,-1.75356 -38.5,-2.57222 C 80.277612,209.91294 65.105899,209.04444 51,209.00608 34.497269,208.96121 38.59426,212.12529 13.760397,180.2462 L 4.2146652,167.9924 3.5694075,150.2462 C 2.5444464,122.05721 0.98010815,91.776831 0.50943159,91.015261 0.27181926,90.630796 0.93156005,82.707581 1.9755222,73.408117 3.0194844,64.108653 4.186842,51.862038 4.5696503,46.193418 L 5.2656653,35.886836 10.803631,28.303614 16.341597,20.720392 31.920799,13.245877 47.5,5.7713628 63.5,3.8392579 C 87.143082,0.9842007 99.853105,0.60870508 127.55293,1.9469249 141.27382,2.6098013 165.325,3.7525188 181,4.4862971 c 41.24518,1.93077 102.74478,13.9117789 97.63571,19.0208459 -2.86613,2.866133 -2.03681,4.494178 2.20465,4.327981 4.28609,-0.167946 6.15964,0.628027 6.15964,2.616904 0,1.948429 -2.97038,2.788738 -3.64484,1.031113 -0.85739,-2.234316 -2.66647,-1.781602 -2.06541,0.516859 0.38794,1.483493 0.0307,2 -1.38337,2 C 278.85787,34 278,33.55 278,33 c 0,-0.55 -0.9,-1 -2,-1 -1.1,0 -1.8875,-0.535774 -1.75,-1.19061 0.1375,-0.654835 -0.5375,-1.362831 -1.5,-1.573324 C 271.6627,28.998279 271,29.449143 271,30.426676 271,31.292004 271.5051,32 272.12244,32 c 0.7676,0 0.72255,0.481847 -0.1425,1.524166 -1.53397,1.84833 -0.4315,3.327393 1.23673,1.659167 C 274.6591,33.740896 277,33.627461 277,35 c 0,0.55 -0.675,1 -1.5,1 -2.18688,0 -1.83511,1.758864 0.5,2.5 1.1,0.349126 2,1.054451 2,1.567388 C 278,40.580324 278.6401,41 279.42245,41 c 0.78234,0 1.94017,1.568732 2.57295,3.486072 1.35508,4.105912 2.59111,5.101982 4.4336,3.572852 2.04499,-1.69719 5.71027,4.994729 4.91463,8.97293 -0.71402,3.570119 -2.07619,4.664073 -3.68076,2.956014 -0.88592,-0.943056 -0.86517,-1.347025 0.0871,-1.696201 C 290.74209,57.194566 288.57019,56 283.58341,56 c -4.70843,0 -5.66921,-0.346783 -7.34879,-2.652473 -2.52425,-3.465236 -4.65006,-2.295033 -3.92685,2.161621 0.29051,1.790187 0.0599,3.723221 -0.51255,4.295632 -0.721,0.720996 0.0723,2.018 2.58202,4.221576 4.14466,3.639064 4.56786,5.493232 1.44045,6.311068 -2.17033,0.567554 -2.16758,0.585411 0.5,3.252995 1.47527,1.475269 2.68231,3.049832 2.68231,3.499027 0,0.449196 1.584,1.568377 3.52,2.487071 2.71232,1.287079 3.27115,1.97021 2.43544,2.977178 -0.81501,0.98202 -0.59163,1.57064 0.89871,2.368249 1.09081,0.583782 2.28062,2.415165 2.64402,4.069739 C 288.86158,90.646257 289.46666,92 289.8428,92 c 0.66909,0 2.78732,7.538066 3.79358,13.5 0.27849,1.65 0.52374,6.2625 0.545,10.25 0.0232,4.34998 0.45665,7.25 1.08363,7.25 0.57473,0 0.35923,0.7875 -0.47889,1.75 -1.52179,1.74762 -1.25626,8.89655 0.72212,19.44224 0.41484,2.21128 0.25496,3.83608 -0.41843,4.25226 -1.66866,1.03129 -1.29512,2.84826 0.44804,2.17935 2.54898,-0.97814 2.89514,2.29922 0.57439,5.4382 -1.89195,2.55901 -2.08238,3.75708 -1.54905,9.74585 0.38832,4.36051 -0.15851,13.4894 -1.51311,25.26014 -3.01166,26.16983 -1.74558,23.29834 -11.34911,25.74001 -25.5948,6.50739 -27.66585,6.75353 -46.20097,5.49083 z m 59.22917,-68.90305 c -0.33229,-0.33229 -1.1948,-0.36781 -1.91667,-0.0789 -0.79773,0.31922 -0.56078,0.55618 0.60417,0.60416 1.05416,0.0434 1.64479,-0.19293 1.3125,-0.52522 z M 9.2351491,79.931981 c 0.4548683,-1.88759 1.5631159,-5.134407 2.4627739,-7.21515 1.188209,-2.748112 1.335215,-4.083693 0.537313,-4.881595 -1.377064,-1.377064 -4.0447532,4.531536 -5.169672,11.450182 -0.9116933,5.607234 0.8478125,6.131588 2.1695851,0.646563 z M 280.54784,38.411324 C 278.66426,37.034015 278.66913,37 280.74985,37 c 2.22806,0 3.84675,1.513247 2.50543,2.342226 -0.42753,0.264233 -1.64588,-0.154673 -2.70744,-0.930902 z"
       id="path3362"
       inkscape:connector-curvature="0" />
    <path
       style="fill:#b79589"
       d="m 236.5,222.01698 c -4.95,-0.4435 -17.1,-1.3466 -27,-2.00689 -12.56917,-0.83831 -20.11199,-1.83969 -25,-3.31901 -3.85,-1.16516 -8.23465,-1.99391 -9.74367,-1.84166 -3.25374,0.32829 -7.28362,-3.69239 -8.33562,-8.3166 -0.37126,-1.63194 -1.1803,-3.79685 -1.79787,-4.8109 -0.8986,-1.47552 -0.7614,-2.11195 0.687,-3.18682 2.0087,-1.49067 0.77685,-2.88933 -1.7057,-1.93669 -1.8126,0.69556 -3.91832,-3.61608 -2.9713,-6.08398 0.75849,-1.97662 2.36716,-0.92695 2.36716,1.54459 0,2.19856 2.89545,2.64553 4.8,0.74098 2.24834,-2.24834 1.33507,-4.84562 -2.22722,-6.33404 -3.51148,-1.46719 -5.29476,-4.48875 -3.94149,-6.67839 0.41821,-0.67669 0.66737,-2.45113 0.55367,-3.94321 -0.11369,-1.49209 0.27511,-3.01067 0.86401,-3.37462 0.68721,-0.42473 0.44131,-1.12197 -0.68656,-1.94669 -1.62021,-1.18472 -1.46888,-1.55694 1.94016,-4.77208 4.27353,-4.03046 4.58087,-4.99953 1.44743,-4.56383 -1.91952,0.26691 -2.2075,-0.0925 -1.96063,-2.44684 0.30875,-2.94453 -2.46604,-7.65675 -4.53937,-7.70888 -0.6875,-0.0173 -1.25,-0.961 -1.25,-2.09716 0,-1.13616 -0.49837,-2.99695 -1.10749,-4.1351 -1.30264,-2.43401 -2.85136,-0.84565 -2.8772,2.95084 -0.008,1.2375 -0.43041,2.25 -0.93776,2.25 -1.33235,0 -3.24635,6.39654 -2.49774,8.34738 0.34879,0.90894 0.24852,1.65303 -0.22282,1.65353 -1.17323,0.001 -1.52794,15.81114 -0.40194,17.91509 0.49797,0.93047 0.55,2.2668 0.11563,2.96963 -0.47328,0.76578 0.38625,3.44915 2.14489,6.69612 1.61406,2.98004 2.62075,5.41825 2.23709,5.41825 -0.38365,0 -0.17528,0.6293 0.46306,1.39845 1.3485,1.62484 1.17895,8.04766 -0.30218,11.4475 -0.8171,1.8756 -0.68032,2.53718 0.68223,3.29969 2.22504,1.2452 2.19484,3.83466 -0.0458,3.92465 -1.51034,0.0607 -1.47611,0.19942 0.25,1.0133 2.80326,1.32177 -20.94317,0.2422 -48,-2.18219 C 95.4,210.8172 76.275,209.70225 65,209.42374 33.986058,208.65766 37.744119,209.9897 26.261173,195.69279 2.0900782,165.5984 4.2045682,170.92034 3.589789,138.63137 3.1298652,114.4756 4.1273469,99.588205 6.5151283,94.970745 7.3767612,93.304531 7.8418572,91.553137 7.5486749,91.078758 6.7127687,89.726233 10.28687,81 11.676745,81 c 1.346927,0 5.562035,-4.094554 4.898341,-4.758247 -0.222086,-0.222086 -1.342334,0.0985 -2.48944,0.71241 -2.700892,1.445474 -2.839877,-0.46619 -0.155764,-2.142447 1.443776,-0.901653 1.694502,-1.645044 0.995401,-2.951326 -0.607334,-1.134815 -0.527242,-2.63989 0.228782,-4.29918 1.724551,-3.784978 -1.513941,-7.450489 -4.330515,-4.901525 -1.0351521,0.9368 -1.6151266,2.421639 -1.3151082,3.366913 0.2951928,0.93007 -0.099526,2.219069 -0.877152,2.864441 C 7.0673429,70.189 6.2781706,74.530695 5.4415825,86.439469 4.8721672,94.545058 4.5093615,96 3.0575602,96 1.1985221,96 1.2891864,89.163666 3.4971602,62.852967 L 5.8172782,35.205935 11.158639,28.033924 C 16.295123,21.137008 16.941102,20.650063 28,15.338761 46.475154,6.4656245 49.791496,5.3174927 59,4.60643 63.675,4.2454356 73.125,3.2271816 80,2.3436434 89.141677,1.1688039 96.395655,0.9027857 107,1.3534981 167.09508,3.9076963 209.85767,6.0063821 211.06693,6.4608545 211.85512,6.7570768 217.225,7.9066996 223,9.0155718 c 27.63351,5.3059802 33,6.7087162 33,8.6258102 0,0.774466 1.125,1.835844 2.5,2.358618 2.09505,0.796536 2.52039,1.642924 2.62589,5.225249 0.29737,10.098034 -0.42199,22.276023 -1.40925,23.856867 -0.81284,1.301574 -0.66775,2.109627 0.60783,3.385208 2.0765,2.076501 2.07804,2.430422 0.0205,4.703935 -1.53998,1.701663 -1.53998,1.828741 0,1.828741 0.98832,0 1.65499,0.805646 1.65499,2 0,1.1 0.40986,2 0.91079,2 0.50094,0 1.87332,1.988311 3.04974,4.418469 C 267.85901,71.340193 277.85013,81 280.00789,81 c 1.61372,0 1.91059,3.208039 0.63854,6.900199 -1.09547,3.179606 -1.09251,4.136843 0.0174,5.654793 0.73487,1.004997 1.33613,2.557366 1.33613,3.449709 0,0.892343 1.07153,3.842679 2.38118,6.556299 1.79737,3.72419 2.15938,5.51723 1.47652,7.31327 -0.49756,1.30869 -1.18313,5.67377 -1.52348,9.7002 -0.40392,4.77833 -1.09035,7.50171 -1.97653,7.84177 -0.74673,0.28654 -1.35769,1.60354 -1.35769,2.92665 0,1.32311 -0.67194,4.31015 -1.49321,6.63786 -0.82126,2.32772 -1.26392,4.6032 -0.98369,5.05663 0.28024,0.45343 -0.016,1.14921 -0.65828,1.54616 -0.82042,0.50705 -0.61571,1.12545 0.68819,2.07888 1.70363,1.24573 1.72426,1.48888 0.25123,2.96192 -1.69912,1.69911 -0.89422,5.75172 2.78168,14.00555 3.63953,8.17215 6.80601,31.39181 4.47721,32.8311 -0.74118,0.45807 -0.88324,3.2572 -0.43693,8.60889 C 286.09907,210.73999 285.96159,213 285.14378,213 284.5147,213 284,213.61034 284,214.35631 c 0,1.29013 -2.79695,2.19752 -19.5,6.32622 -7.73928,1.91302 -16.7497,2.34245 -28,1.33445 z M 156.36163,136.5 c -0.31659,-0.825 -0.75246,-1.5 -0.96862,-1.5 -0.21615,0 -0.39301,0.675 -0.39301,1.5 0,0.825 0.43588,1.5 0.96862,1.5 0.53273,0 0.70959,-0.675 0.39301,-1.5 z M 260.19682,29.75 c -0.54816,-2.00239 -0.65905,-2.041441 -1.00766,-0.354853 -0.31354,1.516931 -0.56802,1.616717 -1.27512,0.5 -0.70684,-1.116289 -0.88648,-1.045363 -0.89873,0.354853 -0.009,1.060042 0.7363,1.75 1.89107,1.75 1.49282,0 1.77276,-0.488102 1.29044,-2.25 z M 158,187 c 0,-0.55 0.45,-1 1,-1 0.55,0 1,0.45 1,1 0,0.55 -0.45,1 -1,1 -0.55,0 -1,-0.45 -1,-1 z M 261,18.5 c 0,-0.825 0.45,-1.5 1,-1.5 0.55,0 1,0.675 1,1.5 0,0.825 -0.45,1.5 -1,1.5 -0.55,0 -1,-0.675 -1,-1.5 z"
       id="path3360"
       inkscape:connector-curvature="0" />
    <path
       style="fill:#ae8679"
       d="m 229.5,221.28841 c -23.14837,-1.28635 -41.03238,-3.296 -42.07989,-4.72856 -0.61483,-0.84082 -1.41087,-1.23576 -1.76899,-0.87764 -0.35811,0.35812 -0.71966,0.0136 -0.80343,-0.76554 -0.0838,-0.77917 -0.25687,-1.86667 -0.38465,-2.41667 -0.12779,-0.55 -0.28425,-2.0125 -0.34769,-3.25 -0.0634,-1.2375 -0.60981,-2.25 -1.21414,-2.25 -0.60433,0 -2.29183,-1.26512 -3.75,-2.81138 -1.45817,-1.54626 -3.5386,-3.14546 -4.62318,-3.55379 -1.56806,-0.59035 -1.68905,-0.91728 -0.59069,-1.5961 0.75971,-0.46953 1.9846,-0.62218 2.72198,-0.33922 1.01184,0.38828 1.34068,-0.72424 1.34068,-4.53582 0,-3.80738 0.46221,-5.37402 1.87808,-6.36574 1.6064,-1.12517 1.76878,-2.03564 1.1225,-6.29415 -0.41557,-2.73828 -0.52013,-5.59225 -0.23236,-6.34217 0.28777,-0.74991 -0.10486,-1.76806 -0.8725,-2.26255 -1.19272,-0.76831 -1.19097,-1.03093 0.012,-1.80558 0.77425,-0.49857 1.46237,-2.41107 1.52915,-4.25 0.0668,-1.83892 0.47194,-3.90533 0.90036,-4.592 0.54859,-0.87929 0.10851,-1.17502 -1.48816,-1 -1.58382,0.1736 -2.38489,-0.35428 -2.65792,-1.7515 -0.44531,-2.27884 -4.04091,-6.5 -5.53673,-6.5 -0.54832,0 -1.82298,-0.74755 -2.83258,-1.66122 -1.00959,-0.91367 -2.83215,-2.15804 -4.05013,-2.76527 -1.55434,-0.77492 -2.44816,-2.44099 -2.9983,-5.58878 -2.69225,-15.40449 -3.6749,-17.356 -8.46295,-16.80699 L 151.5,126.5 l -0.12162,11 c -0.0825,7.4622 -0.66993,12.60809 -1.82648,16 -2.43716,7.14771 -2.74978,34.48295 -0.42504,37.16542 2.45715,2.83525 3.57895,7.35216 3.18753,12.83458 -0.19633,2.75 -0.33093,6.49757 -0.29911,8.32793 l 0.0579,3.32794 -9.28658,-0.64348 C 137.67896,214.15848 123.15,212.97607 110.5,211.88482 97.85,210.79357 76.025,209.49164 62,208.99164 47.975,208.49163 36.446499,208.06397 36.381108,208.04127 36.009765,207.91237 13.670996,179.56212 10.12228,174.71606 7.1061186,170.59725 6.0707956,168.3523 6.5260024,166.91807 6.8775813,165.81035 6.707848,164.3529 6.1488172,163.67931 5.1881623,162.5218 4.9609962,158.09248 5.0882389,143 5.1183792,139.425 5.0677978,129.51737 4.9758358,120.98305 4.7988836,104.56141 6.4180916,94.897955 9.790345,92.25 10.862915,91.407798 10.967745,91 10.111674,91 6.0503413,91 13.996514,79.22107 19.25,77.453893 21.591687,76.666192 21.462719,74.770066 18.961197,73.20784 17.735923,72.442644 17.222442,71.449098 17.674351,70.717894 19.560749,67.665638 15.954765,55.162304 13.249649,55.37575 12.268404,55.453175 11.348575,54.275199 10.808891,52.25 9.7552622,48.296192 8.5159595,48.036475 8.212274,51.705834 7.8796064,55.725379 6.2382056,56.797268 5.418276,53.530408 1.9939696,39.886885 10.81133,23.21359 24.71316,17.04451 28.995922,15.143991 36.082856,11.868676 40.461903,9.7660332 57.343366,1.66023 83.68665,0.35765809 159.5,3.8800668 c 44.45104,2.065266 53.81331,2.9928694 70,6.9355272 2.2,0.535863 5.6875,1.266962 7.75,1.624664 2.56044,0.444062 3.75,1.17526 3.75,2.305055 0,1.286979 -0.26667,1.38802 -1.2,0.454687 -0.66,-0.66 -2.01,-1.2 -3,-1.2 -2.43502,0 -2.31788,3.221352 0.2,5.5 1.1,0.995486 2,2.190231 2,2.654988 0,1.336944 -3.78054,0.982098 -4.31475,-0.404988 -0.26477,-0.6875 -0.44766,-0.125 -0.40641,1.25 0.0412,1.375 0.52895,3.096797 1.08378,3.826215 0.70907,0.932207 0.59084,1.584512 -0.39796,2.195627 -0.77371,0.478177 -1.08618,1.189976 -0.69438,1.581776 0.3918,0.3918 0.21117,1.316268 -0.4014,2.054373 C 233.04964,33.645108 233.05194,34 233.87756,34 234.4949,34 235,33.55 235,33 c 0,-0.55 0.675,-1 1.5,-1 0.825,0 1.5,0.421708 1.5,0.937129 0,0.515422 1.575,0.681543 3.5,0.369158 3.26577,-0.529962 3.5,-0.389808 3.5,2.094255 0,2.56458 -1.02827,3.487037 -4.44622,3.988686 -2.87838,0.422456 -4.87705,4.258603 -3.02441,5.80492 5.41808,4.522254 6.42207,6.120152 4.66536,7.425121 -1.41933,1.054347 -1.4916,1.591618 -0.44473,3.306258 0.6875,1.126035 1.25,3.117755 1.25,4.426045 0,4.301755 3.78133,7.912032 7.54699,7.205591 3.13895,-0.588872 5.69039,0.165302 14.15016,4.182614 1.82807,0.868103 3.61145,2.706711 4.16466,4.293642 0.65234,1.871312 2.14399,3.200828 4.57911,4.081376 1.98936,0.719365 3.41031,1.830498 3.16348,2.473733 -0.24646,0.642269 0.0265,1.642349 0.60653,2.2224 1.28231,1.282312 0.21133,4.568074 -1.20387,3.693437 -1.45697,-0.900458 -3.16724,0.42744 -2.31875,1.800334 0.39652,0.641577 0.60175,2.549976 0.45607,4.240886 -0.1866,2.165847 0.79241,4.645503 3.31286,8.390865 2.71653,4.03675 3.31292,5.63556 2.47763,6.64203 -0.60506,0.72905 -0.80439,2.25725 -0.44297,3.396 1.22318,3.8539 -0.61946,8.16031 -5.56278,13.00068 -5.03566,4.93079 -8.07163,18.02521 -4.17912,18.02493 1.89535,-1.4e-4 1.49469,2.36601 -0.62476,3.68963 -2.5804,1.61148 -3.57135,12.98932 -1.35359,15.54152 1.15184,1.32555 1.2348,2.05606 0.35403,3.11732 -0.88319,1.06419 -0.79913,1.67756 0.36199,2.64121 0.83178,0.69031 1.51233,1.87502 1.51233,2.63267 0,0.75766 0.44143,1.37756 0.98095,1.37756 1.28869,0 2.40999,4.55842 1.48819,6.04993 -0.5378,0.87018 -0.91434,0.84776 -1.49322,-0.0889 -1.03232,-1.67033 -4.04066,-0.42947 -4.65509,1.9201 -0.26911,1.02907 -1.57639,2.45284 -2.90506,3.16393 C 260.44039,185.63745 260.15824,189 263,189 c 1.30796,0 2,0.66667 2,1.92668 0,1.05967 0.61958,2.07217 1.37683,2.25 1.06472,0.25002 1.14354,0.89005 0.34768,2.82332 -0.8432,2.04828 -1.10522,2.1838 -1.45015,0.75 C 264.76102,194.61619 262,194.40539 262,196.5 c 0,0.825 0.42171,1.5 0.93713,1.5 1.44281,0 0.0159,7.34351 -1.692,8.70781 -1.01635,0.81188 -1.32211,2.15728 -0.93273,4.10417 0.31859,1.59299 0.1167,3.35892 -0.44867,3.92429 -0.70391,0.70391 -0.60803,1.70515 0.30417,3.17634 2.45624,3.96142 -5.12071,4.79546 -30.6679,3.3758 z m 36.48272,-94.4106 0.0173,-4.62219 -4.06067,-0.64933 c -2.23337,-0.35713 -4.44141,-0.41402 -4.90674,-0.12643 -0.46534,0.2876 -0.62659,-0.31639 -0.35834,-1.34219 0.5169,-1.97663 -4.12996,-6.48577 -6.03088,-5.85213 -2.08182,0.69394 -1.61272,2.4074 0.98286,3.59002 1.86185,0.84831 2.35961,1.5386 1.63325,2.26496 -0.72635,0.72635 -1.76321,0.66186 -3.40212,-0.2116 -2.11196,-1.12557 -2.22069,-1.09064 -1.04453,0.33553 1.35919,1.6481 -0.37205,6.72706 -2.80572,8.23115 -1.72321,1.06501 -1.11277,2.26106 1.48703,2.91357 1.37178,0.3443 2.38428,1.18058 2.25,1.85841 -0.16337,0.82471 1.7408,1.39783 5.75586,1.73242 7.90002,0.65834 10.45731,-1.3231 10.48272,-8.12219 z M 239,114.10699 c 0,-0.49116 -0.73865,-1.17646 -1.64144,-1.52289 -1.37248,-0.52667 -1.43434,-0.38034 -0.37756,0.89301 1.44013,1.73524 2.019,1.91584 2.019,0.62988 z m -8,-8.54797 c 0,-1.05548 -1.91911,-1.49891 -2.48992,-0.57533 -0.34546,0.55897 0.0734,1.01631 0.9309,1.01631 0.85746,0 1.55902,-0.19844 1.55902,-0.44098 z m 4,0 c 0,-1.05548 -1.91911,-1.49891 -2.48992,-0.57533 -0.34546,0.55897 0.0734,1.01631 0.9309,1.01631 C 234.29844,106 235,105.80156 235,105.55902 Z M 237.5,57 c -0.33992,-0.55 -1.26648,-1 -2.05902,-1 C 234.64844,56 234,55.55 234,55 c 0,-0.55 -0.45,-1 -1,-1 -2.31878,0 -0.77242,2.901631 1.75,3.283746 1.5125,0.229124 2.88906,0.484014 3.05902,0.566422 C 237.97898,57.932576 237.83992,57.55 237.5,57 Z M 231,30 c 0,-0.55 -0.47656,-1 -1.05902,-1 -0.58246,0 -0.7809,0.45 -0.44098,1 0.33992,0.55 0.81648,1 1.05902,1 C 230.80156,31 231,30.55 231,30 Z M 4.0789474,75.416667 c 0.047984,-1.164943 0.2849403,-1.4019 0.6041666,-0.604167 0.2888706,0.721875 0.2533443,1.584375 -0.078947,1.916667 -0.3322917,0.332291 -0.5686404,-0.258334 -0.5252193,-1.3125 z"
       id="path3358"
       inkscape:connector-curvature="0" />
    <path
       style="fill:#a6756a"
       d="m 226,220.9131 c -34.33941,-2.01861 -37.56123,-2.61828 -38.54629,-7.17457 -0.38508,-1.78119 -1.84458,-6.03887 -3.24332,-9.46151 -3.09045,-7.56216 -2.15013,-13.57336 2.29789,-14.68974 2.93195,-0.73588 3.03037,-1.68977 0.86582,-8.39191 -1.316,-4.07476 -1.40525,-5.66725 -0.46828,-8.35506 0.96179,-2.75898 0.89807,-3.51054 -0.37667,-4.44266 -1.58278,-1.15735 -1.18263,-6.87574 0.55634,-7.95048 0.45494,-0.28117 0.56337,-1.19865 0.24096,-2.03885 -0.38501,-1.00331 0.14095,-1.71779 1.53242,-2.08167 3.45574,-0.90369 1.28663,-2.44457 -2.45352,-1.74292 -4.98667,0.93551 -9.22971,-1.1227 -10.21764,-4.95637 -0.53629,-2.08106 -1.51022,-3.23051 -2.91107,-3.43567 -2.17101,-0.31796 -4.36331,-6.59618 -4.63635,-13.27741 C 168.57479,131.31142 168.15237,130 167.70158,130 c -0.45079,0 -0.53696,-0.45734 -0.1915,-1.01631 0.34546,-0.55897 1.04702,-0.75742 1.55902,-0.44098 0.51199,0.31643 0.9309,0.0988 0.9309,-0.48369 C 170,127.47656 169.50246,127 168.89436,127 c -0.60811,0 -2.45384,-1.13443 -4.10164,-2.52096 -3.22642,-2.71485 -11.68076,-2.74598 -14.56302,-0.0536 -1.4283,1.3342 -1.79281,10.14617 -0.76835,18.57458 0.47533,3.91055 0.21564,6.76635 -0.89862,9.88197 -3.27179,9.14844 -3.32774,34.62478 -0.0911,41.46654 2.39872,5.07048 2.59716,6.15439 1.5015,8.20164 -0.80537,1.50485 -1.04883,4.16315 -0.67238,7.34167 l 0.59013,4.98267 -7.19546,-0.48134 C 138.73795,214.12841 127.85,213.25996 118.5,212.46325 87.433887,209.81614 74.69756,209 64.45373,209 c -5.580564,0 -14.253649,-0.29154 -19.273521,-0.64786 l -9.127041,-0.64785 -9.895585,-12.60215 C 6.0904675,169.54644 6.7011731,170.52874 8.0204048,165.92885 8.6942915,163.57915 8.6370908,162.39374 7.8256204,161.89223 7.0383539,161.40567 6.5914517,154.93761 6.405666,141.3411 6.2565539,130.4285 5.8836383,118.43761 5.5769647,114.69469 c -0.3744529,-4.57015 -0.1196472,-7.85457 0.7758008,-10 0.7333641,-1.75708 1.6378053,-4.82041 2.0098695,-6.807402 0.3720642,-1.986991 1.5660903,-4.417798 2.653391,-5.401792 1.406802,-1.273138 1.682186,-2.144203 0.954919,-3.020505 -0.728042,-0.877238 -0.553373,-1.411251 0.607286,-1.856637 1.026726,-0.393992 1.393197,-1.240428 0.990924,-2.288734 -0.432873,-1.128051 0.418927,-2.579634 2.646246,-4.509562 7.926255,-6.867944 11.144491,-11.678585 5.954663,-8.901074 -1.46522,0.784163 -1.722669,0.376237 -1.807637,-2.86418 C 20.176656,61.959969 17.839923,54.987778 13.888865,49.729416 11.749989,46.88284 10,43.979213 10,43.276912 10,42.57461 8.9875,41.947799 7.75,41.883999 6.0568296,41.796705 5.9330897,41.654819 7.25,41.310674 8.3246593,41.029837 9,39.8941 9,38.367659 9,36.965174 8.5642228,36.151291 8,36.5 5.8925048,37.802504 7.1587985,34.318597 10.259706,30.282955 12.041868,27.963581 14.284999,24.957247 15.244443,23.602214 16.879503,21.293 22.285632,18.385486 41.372664,9.549983 49.819661,5.6398169 78.556738,1.5859402 97,1.7027562 125.51492,1.883364 216.38016,6.8540466 217.60261,8.3001887 219.48977,10.532662 218.83508,17.061957 216.57563,18.542402 213.49832,20.558735 213.23436,23.519875 216,25 c 2.68433,1.43661 2.52116,3.428506 -0.43979,5.368592 -2.76443,1.811325 -2.60593,8.113723 0.25725,10.228765 1.06619,0.787598 1.16048,1.298242 0.33403,1.809017 C 214.66583,43.32456 213,42.285683 213,40.440983 213,39.648442 212.55,39 212,39 c -0.55,0 -1,0.762877 -1,1.695281 0,0.932405 -1.13899,2.884134 -2.5311,4.337177 -2.75898,2.879757 -2.5331,5.327632 0.64875,7.030506 2.07775,1.111979 2.48353,4.945199 0.84717,8.002777 C 209.177,61.53779 209.25493,62 210.29095,62 c 0.74872,0 2.67454,1.575 4.27958,3.5 C 217.89589,69.488248 219,69.862145 219,67 c 0,-1.1 -0.45,-2 -1,-2 -0.55,0 -1,-0.45 -1,-1 0,-0.55 0.9,-1 2,-1 1.1,0 2,0.418702 2,0.930449 0,0.511747 0.99748,1.074247 2.21663,1.25 1.5191,0.218995 2.50866,1.342261 3.14466,3.569551 0.51042,1.7875 1.56449,3.25 2.34239,3.25 0.77789,0 1.13844,-0.446436 0.80121,-0.99208 -0.33722,-0.545644 -0.15246,-1.783144 0.41058,-2.75 0.97209,-1.669266 1.02525,-1.669666 1.05412,-0.0079 0.0205,1.180412 0.8249,1.75 2.47139,1.75 1.34254,0 2.73261,0.471851 3.08903,1.048558 0.44273,0.716349 1.09671,0.676197 2.06418,-0.126732 0.86025,-0.713943 3.35776,-0.988727 6.36243,-0.700016 2.72046,0.261402 5.33064,0.09093 5.80039,-0.378823 1.49337,-1.49337 9.77588,2.095308 13.83274,5.993503 2.15097,2.066843 4.69822,4.060035 5.66055,4.429318 0.96234,0.369282 1.71417,1.248046 1.67075,1.952807 -0.0618,1.003642 -0.18827,1.010444 -0.58333,0.03139 -0.27741,-0.6875 -1.16844,-1.25 -1.98007,-1.25 -2.07157,0 -0.63916,1.942473 2.23949,3.036932 3.0159,1.146644 3.0799,2.620227 0.15286,3.519759 -3.34403,1.027682 -6.25751,4.311331 -4.44308,5.007593 0.77407,0.297037 2.00274,2.429089 2.73037,4.737892 0.72763,2.308803 1.79039,4.812599 2.36169,5.563989 3.45793,4.54797 4.57321,13.56363 1.85102,14.96319 -2.85413,1.4674 -16.24829,-0.45198 -19.39642,-2.77949 C 251.76352,112.76529 249,113.26437 249,116.10699 249,117.14814 248.50122,118 247.89159,118 c -0.69758,0 -0.86373,0.97485 -0.44828,2.63016 0.57558,2.29328 0.39795,2.56159 -1.38683,2.09486 -1.72425,-0.4509 -1.95628,-0.17397 -1.47175,1.75654 0.43705,1.74136 -0.30868,3.17572 -3.10476,5.9718 -2.02398,2.02399 -3.52247,3.83258 -3.32997,4.01909 0.73482,0.71197 11.7672,5.52755 12.66348,5.52755 0.5179,0 1.51883,0.69548 2.22429,1.54551 0.70546,0.85003 1.88556,1.31415 2.62244,1.03138 2.34333,-0.89922 4.55278,0.46154 3.2663,2.01166 -0.85465,1.02979 -0.63076,2.15392 0.93294,4.68404 2.36558,3.82759 1.91782,7.26793 -1.28717,9.89005 -1.58912,1.3001 -1.79906,1.97351 -0.90042,2.88823 1.35885,1.38319 0.70586,3.91822 -1.45998,5.66787 -1.13564,0.91742 -1.23223,1.55182 -0.39064,2.56586 0.6149,0.74092 1.41863,3.90498 1.78606,7.03126 0.49459,4.20813 1.08674,5.71468 2.28038,5.80176 0.88678,0.0647 -0.56917,0.48368 -3.23543,0.93108 -5.66618,0.9508 -5.30063,0.70215 -6.17937,4.20335 -0.49732,1.98145 -0.31079,2.75676 0.66871,2.77955 0.74713,0.0174 2.65546,1.17202 4.24074,2.56586 l 2.88233,2.53426 -3.0392,3.18414 c -2.89197,3.02988 -2.96218,3.2976 -1.44926,5.52617 1.18341,1.74318 1.3195,2.77508 0.53224,4.03569 -0.58175,0.93152 -0.9676,4.26511 -0.85746,7.40797 L 253.65124,222 246.57562,221.85334 C 242.68403,221.77268 233.425,221.34957 226,220.9131 Z M 253,196.5 c 0,-0.825 -0.45,-1.5 -1,-1.5 -0.55,0 -1,0.675 -1,1.5 0,0.825 0.45,1.5 1,1.5 0.55,0 1,-0.675 1,-1.5 z M 181.5,146 c -0.33992,-0.55 -1.29303,-1 -2.11803,-1 -0.825,0 -1.22189,0.45 -0.88197,1 0.33992,0.55 1.29303,1 2.11803,1 0.825,0 1.22189,-0.45 0.88197,-1 z M 236,116.95612 c 0,-0.39757 0.9,-0.95821 2,-1.24587 1.1633,-0.30421 2,-1.36401 2,-2.5333 0,-1.10565 0.5625,-2.24387 1.25,-2.52936 0.85778,-0.35621 0.50924,-1.1668 -1.11078,-2.58334 C 237.1872,105.48303 236,105.44943 236,107.94709 c 0,1.07089 -1.125,4.06292 -2.5,6.64893 -1.375,2.58602 -2.5,4.85019 -2.5,5.03148 0,0.18129 1.125,-0.18296 2.5,-0.80945 1.375,-0.6265 2.5,-1.46436 2.5,-1.86193 z M 235,105.35 c 0,-0.64762 -1.52899,-1.15 -3.5,-1.15 -3.13404,0 -4.27174,0.69492 -3.08333,1.88333 C 229.36905,107.03572 235,106.40847 235,105.35 Z M 221.54271,40.069098 c -0.91031,-1.472908 1.32497,-2.319123 4.21197,-1.594533 2.07688,0.521264 2.33175,0.858507 1.19317,1.57883 -1.88088,1.189935 -4.67441,1.19805 -5.40514,0.0157 z M 231,15.440983 c 0,-0.857459 0.45,-1.280902 1,-0.940983 0.55,0.339919 1,1.041476 1,1.559017 C 233,16.576558 232.55,17 232,17 c -0.55,0 -1,-0.701558 -1,-1.559017 z"
       id="path3356"
       inkscape:connector-curvature="0" />
    <path
       style="fill:#976459"
       d="m 237.5,221.3172 c -15.95661,-0.66353 -37.36459,-2.42163 -42.58013,-3.49682 l -5.58013,-1.15036 -1.65156,-7.03731 c -1.29123,-5.50191 -1.38283,-7.20801 -0.41987,-7.8197 0.67743,-0.43031 0.8654,-0.78928 0.41771,-0.7977 -1.27333,-0.024 3.5409,-8.01531 4.82866,-8.01531 0.84825,0 0.81549,-1.60575 -0.126,-6.17439 -0.90281,-4.38098 -0.96917,-6.74096 -0.22845,-8.125 0.75615,-1.41289 0.68444,-2.62233 -0.26016,-4.38732 -1.02531,-1.91581 -1.04713,-2.84816 -0.10208,-4.36143 0.66111,-1.0586 1.20201,-2.60583 1.20201,-3.43829 0,-0.89842 0.91445,-1.51979 2.25,-1.52888 5.53685,-0.0377 6.11409,-4.10627 0.9182,-6.47182 -1.19251,-0.54292 -2.1682,-1.37453 -2.1682,-1.84803 0,-0.4735 -3.95246,-4.79834 -8.78325,-9.61076 -8.44477,-8.41267 -8.87423,-9.06037 -11.14442,-16.80726 -1.78469,-6.09015 -2.91513,-8.30979 -4.63002,-9.09115 -1.24786,-0.56857 -2.5791,-2.01131 -2.95831,-3.20609 -0.8924,-2.81171 -6.52433,-2.10078 -13.34432,1.68446 -6.47996,3.59652 -7.34989,4.4541 -6.76954,6.67337 0.28005,1.07092 -0.21934,3.059 -1.10976,4.41796 -1.29117,1.97056 -1.38018,2.85315 -0.43966,4.35916 0.6486,1.03858 1.17928,3.44826 1.17928,5.35485 0,1.90658 0.53742,4.64603 1.19427,6.08766 0.9257,2.03169 0.9257,3.0512 0,4.53348 -0.65685,1.05179 -1.19427,4.28392 -1.19427,7.18251 0,2.8986 -0.46463,6.8422 -1.03252,8.76357 -1.38303,4.67933 -1.33087,17.93015 0.0914,23.21198 0.63058,2.3418 1.27886,8.16846 1.44063,12.94814 0.16176,4.77967 0.59211,9.17248 0.95633,9.7618 0.93082,1.50609 -8.91201,1.37485 -25.95582,-0.34608 -14.79848,-1.49422 -42.6619,-3.19344 -68.59998,-4.1835 C 34.439544,207.69431 37.88565,209.61949 24.440752,192.5 11.22073,175.66684 10.38218,174.33852 10.552428,170.5 c 0.07318,-1.65 -0.290865,-3.54995 -0.8089925,-4.22212 -0.6234692,-0.80883 -0.4155682,-1.7486 0.6147675,-2.77894 1.640813,-1.64081 1.227937,-4.01365 -1.1097594,-6.37788 -0.7499053,-0.75842 -1.1267077,-1.99592 -0.8373387,-2.75 C 8.7004739,153.61698 8.5013536,153 7.9686152,153 c -1.1550696,0 -1.3091784,-3.67149 -0.1833156,-4.36731 0.4319148,-0.26694 0.6745806,-3.20285 0.5392574,-6.52426 -0.1353233,-3.32141 0.1770765,-6.30042 0.6942217,-6.62004 0.5640795,-0.34862 0.5832661,-1.26271 0.047956,-2.28475 -3.7241814,-7.1104 -2.7027109,-27.09465 1.6819573,-32.90614 1.510664,-2.002258 2.1907,-3.913096 1.81447,-5.098495 -0.743454,-2.342416 1.040466,-5.886523 5.758283,-11.439954 9.263769,-10.904559 10.41883,-14.018775 6.611642,-17.825963 -1.53582,-1.53582 -1.789601,-2.401052 -0.987669,-3.367322 0.78772,-0.949145 0.70098,-1.614339 -0.321119,-2.462606 -1.012756,-0.840513 -1.186215,-2.1117 -0.626683,-4.592595 0.654255,-2.900879 0.438937,-3.649729 -1.394902,-4.851307 -1.863102,-1.220751 -2.12599,-2.195083 -1.866221,-6.916705 C 20.069888,37.682697 17.715868,27.060465 15.773498,25.860014 14.514202,25.081727 19.350578,19 21.228792,19 22.184602,19 32.974261,14.125973 40.256848,10.404431 54.080744,3.3401545 83.710038,1.1319498 134.5,3.3807008 183.34362,5.5432765 184.40415,5.6669855 184.81642,9.25 185.21405,12.705717 190,13.398185 190,10 c 0,-2.9027611 1.62846,-2.4511409 3.30906,0.917701 1.97021,3.94939 0.56365,5.163657 -5.0846,4.389478 -4.32281,-0.592508 -4.42263,-0.545979 -3.30575,1.540933 0.63341,1.183538 2.14832,2.186123 3.36647,2.227966 4.08614,0.140357 9.45496,2.598297 7.46482,3.417525 -0.9625,0.396206 -1.75,1.30973 -1.75,2.030052 0,0.720323 -0.5625,1.536652 -1.25,1.814064 -0.6875,0.277413 0.2125,0.539913 2,0.583334 3.44794,0.08376 3.90976,0.977661 2.1774,4.214608 -0.83365,1.557678 -1.89187,1.932905 -4.75,1.684258 -3.60128,-0.313297 -3.6709,-0.252647 -3.36343,2.930081 0.17268,1.7875 -0.11022,3.25 -0.62868,3.25 -1.79732,0 -3.67661,6.078312 -2.16764,7.01091 0.95647,0.591129 1.28096,2.989304 1.14053,8.429005 -0.21527,8.33803 0.39335,9.549334 6.59182,13.119421 1.7875,1.029533 3.25,2.449856 3.25,3.156272 C 197,71.422023 197.47656,72 198.05902,72 c 0.58246,0 0.74034,0.515629 0.35084,1.145843 -0.48901,0.791246 0.0343,0.964175 1.69099,0.558801 1.39164,-0.340516 3.21432,0.01818 4.34028,0.854157 C 205.50875,75.35146 207.38375,76 208.6078,76 c 1.22404,0 2.39704,0.514529 2.60667,1.143398 0.28594,0.857839 0.91477,0.857804 2.51785,-1.42e-4 C 215.22186,76.34608 216.66593,76.302689 218.5,77 c 1.87505,0.712891 3.25859,0.647246 4.81547,-0.228478 C 226.0173,75.251788 241.264,73.129424 250,73.056997 c 7.49124,-0.06211 13.59184,2.337651 13.3522,5.252279 -0.0887,1.078525 1.41142,2.829458 3.75,4.377057 C 271.35008,85.497444 272.05378,87 269.12244,87 268.08979,87 266.68469,87.675 266,88.5 265.31531,89.325 263.46021,90 261.87756,90 260.2949,90 259,90.173562 259,90.385693 c 0,1.269739 3.19455,5.72609 6.89205,9.614307 6.6446,6.98733 9.71386,21.06745 3.46121,15.87822 -0.87568,-0.72675 -3.3835,-0.94849 -6.77203,-0.59876 -4.51022,0.4655 -5.73565,0.22533 -7.56994,-1.48357 -3.48102,-3.24306 -10.10518,2.18989 -8.3253,6.82818 0.4476,1.16644 0.004,1.33612 -2.10888,0.80593 -2.49078,-0.62515 -2.63036,-0.49033 -2.01807,1.9492 0.41338,1.64705 0.24595,2.6208 -0.45063,2.6208 -0.60963,0 -1.10841,0.63993 -1.10841,1.42208 0,0.78214 -1.78651,2.95126 -3.97003,4.82027 -4.61871,3.95344 -3.91062,6.5272 2.53691,9.22115 2.18873,0.91451 3.43312,2.11746 3.43312,3.31881 0,2.56303 1.05158,3.41977 2.61,2.1264 1.8097,-1.50192 5.15822,-0.21433 5.95274,2.28895 0.45299,1.42725 0.1312,2.39411 -1.00918,3.0323 -1.52924,0.85581 -1.5391,1.14316 -0.11389,3.31831 0.85818,1.30975 1.55344,3.4097 1.54502,4.66655 -0.0111,1.66303 -0.24937,1.9158 -0.875,0.92842 -0.5993,-0.94581 -1.06688,-1.02153 -1.54371,-0.25 -0.37621,0.60872 -0.42512,1.52567 -0.10869,2.03766 0.31644,0.512 0.11799,1.21356 -0.44098,1.55902 -2.30783,1.42632 -0.80002,8.46214 1.84068,8.58903 1.03753,0.0499 1.18236,0.26482 0.39301,0.58333 -0.6875,0.27741 -1.25,0.92583 -1.25,1.44093 0,3.06797 -5.27206,9.07794 -7.57686,8.63735 -1.97352,-0.37727 -2.42314,-0.0527 -2.42314,1.74889 0,3.4213 2.05549,8.51055 3.43731,8.51055 2.5585,0 3.86669,5.48113 3.99774,16.75 0.11135,9.57479 -0.0974,11.22083 -1.40211,11.05414 -0.84312,-0.10772 -4.68294,-0.32685 -8.53294,-0.48694 z m -1.74638,-103.31172 c 6.14816,-3.27318 9.39227,-7.85959 7.14729,-10.10457 -2.96548,-2.96548 -15.5618,-5.24755 -14.60777,-2.64648 0.25127,0.68506 1.00971,1.11754 1.68542,0.96105 5.2927,-1.22573 6.3093,4.76278 1.86747,11.00076 -2.34393,3.29174 -1.21952,3.51884 3.90759,0.78924 z M 14.5,84 c -0.339919,-0.55 0.110081,-1 1,-1 0.889919,0 1.339919,0.45 1,1 -0.339919,0.55 -0.789919,1 -1,1 -0.210081,0 -0.660081,-0.45 -1,-1 z M 199,19.5 c 0,-0.825 0.45,-1.5 1,-1.5 0.55,0 1,0.675 1,1.5 0,0.825 -0.45,1.5 -1,1.5 -0.55,0 -1,-0.675 -1,-1.5 z"
       id="path3354"
       inkscape:connector-curvature="0" />
    <path
       style="fill:#8e564c"
       d="m 215.5,219.99091 c -13.0793,-0.90963 -17.32512,-1.82207 -17.89536,-3.8458 -2.75374,-9.77276 -3.76479,-16.24722 -2.73157,-17.49216 C 197.70978,195.23491 200.19491,182 198,182 c -2.17125,0 -0.92994,-4.07614 1.52563,-5.00974 1.38909,-0.52814 2.78723,-1.642 3.10698,-2.47525 0.73379,-1.91221 4.26968,-1.90349 6.80852,0.0168 2.73195,2.06635 3.75293,1.82841 3.35468,-0.7818 -0.18881,-1.2375 -0.89511,-2.1375 -1.56955,-2 C 210.55182,171.8875 210,171.32246 210,170.49436 210,168.34215 199.84097,157.8906 191.82692,151.79801 188.07211,148.94345 185,146.31499 185,145.95697 c 0,-0.35802 -0.7875,-1.59826 -1.75,-2.75609 -4.2837,-5.15302 -5.05012,-6.54944 -5.64852,-10.29163 -0.35937,-2.24737 -0.16461,-4.85704 0.4479,-6.00152 1.59969,-2.98904 0.19395,-7.86472 -2.57057,-8.91579 -1.53546,-0.58378 -2.4461,-1.84829 -2.65738,-3.69003 -0.43832,-3.8208 -8.64828,-4.54367 -15.42518,-1.35815 -2.40595,1.13093 -4.80961,2.05624 -5.34146,2.05624 -1.18573,0 -11.33391,9.97017 -13.47637,13.23998 -2.12868,3.24876 -0.18503,13.32526 3.14252,16.29186 2.7409,2.44357 2.94372,6.49618 0.74716,14.92933 -1.13439,4.3552 -1.23383,6.06558 -0.38324,6.59128 0.86368,0.53378 0.85864,1.58872 -0.0203,4.25197 -0.73311,2.22132 -0.9083,5.7147 -0.46984,9.36882 0.38452,3.20472 0.83126,8.97676 0.99275,12.82676 0.16149,3.85 0.49372,10.0268 0.7383,13.72622 l 0.4447,6.72622 -3.45948,0.649 c -1.90272,0.35695 -6.68857,0.15658 -10.63523,-0.44527 C 121.87033,211.96587 83.745194,209.45721 59,208.50566 34.737898,207.57269 37.674641,208.92428 24.933315,192.82699 l -11.008537,-13.90809 0.461985,-6.45208 c 0.379984,-5.30685 0.164787,-6.62064 -1.212389,-7.4017 -1.539856,-0.87332 -1.521934,-1.06226 0.223085,-2.35177 1.442622,-1.06606 1.72986,-2.06993 1.198281,-4.18792 -0.610981,-2.43434 -0.449803,-2.72053 1.277723,-2.26877 2.155021,0.56355 1.874419,-1.81506 -0.443169,-3.75666 -1.044079,-0.8747 -1.62557,-5.3973 -2.982431,-23.19618 -0.175938,-2.3079 -0.857363,-5.20046 -1.514279,-6.42792 C 9.3582524,119.93237 8.549873,106 9.9544161,106 10.529487,106 11,105.325 11,104.5 c 0,-0.825 0.635446,-1.5 1.412102,-1.5 1.645188,0 3.089467,-6.844335 2.101283,-9.957827 C 14.137103,91.856612 14.312952,91 14.932612,91 15.519676,91 16,90.523613 16,89.941362 c 0,-1.743526 6.156225,-8.856171 8.236877,-9.516544 1.063113,-0.337419 2.388747,-1.921038 2.945853,-3.519153 0.562255,-1.612886 1.748001,-2.912478 2.665095,-2.920978 1.417093,-0.01313 1.441074,-0.148791 0.168544,-0.953409 C 28.548911,72.103409 34.019726,69 37.122869,69 c 0.716027,0 0.48223,-0.778879 -0.589163,-1.962755 -2.420836,-2.674994 -1.34963,-5.544282 1.500426,-4.018978 C 40.534915,64.356645 47,62.574993 47,60.547448 47,56.880628 60.760969,57.077144 61.183578,60.75 61.473348,63.268369 61.90009,63.525672 66.25,63.804791 L 71,64.109582 71,60.054791 C 71,57.117199 71.413288,56 72.5,56 c 0.825,0 1.5,-0.45 1.5,-1 0,-0.55 0.670904,-1 1.490898,-1 0.971335,0 0.4486,-0.996076 -1.5,-2.858263 C 72.14579,49.378453 71,47.271444 71,45.641737 71,43.900643 70.461284,43 69.419856,43 c -1.383025,0 -1.490931,1.258361 -0.864994,10.087243 l 0.715151,10.087242 -2.385007,-0.337242 c -2.302298,-0.325548 -2.394897,-0.672515 -2.67023,-10.005296 l -0.285223,-9.668053 -3.922604,-0.66272 c -2.157432,-0.364496 -4.897762,-0.353216 -6.089622,0.02506 -1.19186,0.378282 -2.448338,0.25222 -2.792173,-0.280137 C 50.070096,40.612561 40.198449,40.128367 38.241496,41.614172 36.185807,43.174942 32,43.433695 32,42 c 0,-0.55 0.675,-1 1.5,-1 2.281085,0 1.790208,-2.774318 -0.729475,-4.122811 -2.228134,-1.192461 -2.228227,-1.193735 -0.154837,-2.118908 1.801649,-0.803918 2.011926,-1.578375 1.59805,-5.885663 C 33.603842,22.525306 39.327181,18.269641 45.360014,20.584656 47.937165,21.573601 46.21331,23 42.440983,23 39.029448,23 39,23.038511 39,27.5 c 0,2.475 0.45,4.5 1,4.5 0.55,0 1,0.45 1,1 0,0.55 -0.675,1 -1.5,1 -1.728351,0 -2.02688,2.556336 -0.414875,3.55261 C 40.269469,38.284575 47,35.043495 47,33.741211 47,33.299022 46.325,32.678209 45.5,32.361626 43.048396,31.420858 43.792551,29.08356 46.75,28.435529 51.500064,27.394704 51.722965,27.229278 52.279061,24.332145 52.904631,21.073072 51.582167,19 48.877555,19 c -2.825593,0 -1.770249,-3.811546 1.222551,-4.415443 3.295812,-0.66504 4.709713,-1.883652 5.235448,-4.512325 C 55.813609,7.6819547 56.517704,7.1728322 60.148153,6.5923 62.487093,6.2182884 64.873098,5.5450762 65.450386,5.0962728 70.028899,1.5367794 122,1.4789103 122,5.0333056 c 0,1.0075555 -0.90048,2.1177195 -2.00106,2.4670312 -3.06189,0.9718058 -4.46303,4.2175902 -2.13906,4.9551892 C 121.45288,13.595902 123,12.072142 123,7.3930112 L 123,3 l 3.88337,0 c 2.99024,0 3.999,0.4421701 4.38614,1.9225904 0.3112,1.1900299 1.55554,2.0473426 3.26577,2.25 4.09289,0.4849991 5.54893,3.3796986 2.70275,5.3732416 C 136.00711,13.407999 135,14.579413 135,15.148975 c 0,0.569561 -0.9,2.179731 -2,3.578154 C 130.37046,22.070054 130.47714,23 133.49021,23 c 2.38936,0 2.42128,0.08051 0.78802,1.988018 -0.93621,1.09341 -2.03099,1.65591 -2.43286,1.25 -1.28128,-1.294159 -2.68793,-9.217286 -1.74039,-9.802899 2.66028,-1.644144 0.77574,-4.040844 -3.10087,-3.943585 -4.81713,0.120856 -6.77953,1.620033 -4.54649,3.473292 C 124.4173,17.591217 124.43697,19 122.5,19 c -0.87879,0 -1.5,0.911111 -1.5,2.2 0,1.711111 0.26667,1.933333 1.2,1 2.62162,-2.621616 3.8,-1.309079 3.8,4.232612 0,5.742832 -2.86464,8.720107 -5.21918,5.4244 -0.72596,-1.016149 -0.8202,-0.896893 -0.37515,0.474775 0.32688,1.007484 0.59433,3.544903 0.59433,5.63871 0,3.559033 0.2279,3.849676 3.5,4.463525 4.19099,0.786234 4.64676,3.179481 0.87836,4.612224 -1.81664,0.690685 -3.03142,0.656651 -3.95619,-0.110841 -0.73401,-0.609171 -1.80427,-0.817287 -2.37837,-0.462478 C 117.44639,47.460183 117.8031,51 119.5,51 c 2.53163,0 1.66074,1.847049 -1.02957,2.183578 C 113.91787,53.753056 118.04443,58 123.15032,58 c 3.15635,0 4.14774,0.423797 4.54499,1.942881 0.29544,1.129748 1.72107,2.209299 3.40638,2.579455 1.89832,0.416939 2.89831,1.2623 2.89831,2.45013 0,1.694553 2.73957,3.621297 3.73443,2.626433 C 138.65353,66.679808 136.81172,63 135.43261,63 134.57116,63 134,62.003291 134,60.5 134,59.096281 134.57869,58 135.31966,58 137.19685,58 141,62.652277 141,64.948589 c 0,3.043546 1.59198,3.260368 4.14857,0.565018 1.29329,-1.363479 3.13893,-2.486828 4.10143,-2.49633 C 150.2125,63.007774 151,62.55 151,62 c 0,-0.55 0.49814,-1 1.10699,-1 0.60884,0 0.84797,0.675 0.53138,1.5 -0.46405,1.209302 0.38731,1.5 4.39301,1.5 2.73274,0 4.96862,0.352977 4.96862,0.784392 0,0.431416 1.36853,1.592802 3.04117,2.580857 1.90377,1.124583 3.26108,2.896012 3.62916,4.736417 0.3234,1.616974 0.97987,3.182146 1.45883,3.47816 0.47896,0.296015 0.87084,1.379661 0.87084,2.408102 0,1.443656 0.74083,1.86912 3.25,1.866493 2.6604,-0.0028 5.33524,0.326743 8.62244,1.062246 0.20485,0.04583 -0.0943,0.645833 -0.66477,1.333333 -1.48451,1.789042 26.82324,1.797517 28.97983,0.0087 0.82309,-0.682728 1.75112,-0.986725 2.0623,-0.675547 0.6362,0.636205 19.09914,-3.1857 21.62252,-4.475954 2.40504,-1.229739 16.9416,-2.217269 17.57409,-1.193883 0.29898,0.483763 2.45835,1.894426 4.7986,3.134807 2.34024,1.24038 5.25804,2.792425 6.48398,3.448989 l 2.229,1.193753 -2.30318,2.163726 c -1.26675,1.190049 -2.54035,1.926561 -2.83022,1.636694 -0.28986,-0.289868 -1.83148,0.153244 -3.42581,0.984693 -1.59433,0.831448 -4.02378,1.550023 -5.39878,1.596833 -1.375,0.04681 -1.9375,0.312081 -1.25,0.589494 0.6875,0.277412 1.26818,1.029386 1.2904,1.671052 0.0222,0.641667 2.38472,2.678437 5.25,4.526156 8.45926,5.455077 14.65099,15.613017 9.89221,16.228847 -6.72379,0.87011 -10.34237,0.6589 -10.83796,-0.63259 C 255.41047,110.02135 247,112.55605 247,115.272 c 0,0.46242 -1.2587,2.05289 -2.7971,3.53439 -1.53841,1.4815 -3.665,4.37976 -4.72577,6.44059 -1.3052,2.53571 -2.98709,4.09627 -5.2029,4.82755 C 232.47341,130.66884 231,131.79521 231,132.57755 231,133.3599 230.12656,134 229.05902,134 c -2.76615,0 -3.43787,1.67115 -2.03402,5.06036 1.44706,3.4935 2.94979,3.83458 3.03839,0.68964 0.0618,-2.19463 0.0877,-2.18905 1.05156,0.22649 1.19464,2.99394 0.43581,6.4413 -2.2473,10.20938 -1.76607,2.48021 -1.85852,3.24581 -0.7923,6.56099 0.66389,2.06423 1.35441,4.31564 1.53448,5.00314 0.18007,0.6875 1.49308,1.25 2.9178,1.25 1.6042,0 2.33565,0.4122 1.92126,1.0827 -0.36803,0.59549 0.76234,3.07601 2.51194,5.51229 3.41862,4.76033 3.68879,8.12005 0.6094,7.57822 -3.418,-0.60142 -5.34094,7.93333 -2.07023,9.18842 0.825,0.31658 1.5,1.21658 1.5,2 0,0.78341 -0.675,1.68341 -1.5,2 -2.21075,0.84834 -1.83706,2.67712 1.19341,5.84024 2.99891,3.13019 2.00203,6.45011 -1.15103,3.8333 -1.27865,-1.06118 -1.54238,-1.01113 -1.54238,0.2927 0,0.86501 0.5625,1.93261 1.25,2.37244 3.90388,2.49751 6.98331,9.71893 4.5,10.55272 -0.97359,0.32689 -0.92874,1.06398 0.20284,3.33333 0.79907,1.6025 1.61313,3.25114 1.80902,3.66364 0.41159,0.8667 -11.80777,0.74614 -26.26186,-0.25909 z m 20.21958,-101.09772 c 3.61429,-2.01423 4.39006,-2.6997 8.64198,-7.63601 3.1193,-3.6214 -1.80153,-7.07211 -9.82868,-6.89231 -5.80687,0.13007 -9.34159,2.13513 -3.76401,2.13513 3.88547,0 4.25826,4.70734 0.77884,9.83456 -3.7629,5.54494 -2.53643,6.29714 4.17187,2.55863 z M 63,35 c 0,-1.1 -0.172516,-2 -0.383369,-2 -0.210852,0 -0.618724,0.9 -0.90638,2 -0.287656,1.1 -0.115141,2 0.383369,2 C 62.592129,37 63,36.1 63,35 Z m 110.45608,41.591542 c -1.07412,-0.785411 -1.62314,-1.757818 -1.22005,-2.160904 0.40309,-0.403086 -0.008,-1.274805 -0.91405,-1.937154 -2.48024,-1.813592 -1.00119,-4.927355 1.66318,-3.501424 1.10816,0.593069 2.01484,1.575366 2.01484,2.182881 0,0.607516 0.7875,1.68918 1.75,2.403698 1.57928,1.172386 1.59923,1.452377 0.20451,2.870023 -1.34941,1.37159 -1.79328,1.389718 -3.49843,0.14288 z M 38,57.5 C 38,56.675 38.675,56 39.5,56 40.325,56 41,56.675 41,57.5 41,58.325 40.325,59 39.5,59 38.675,59 38,58.325 38,57.5 Z M 29.5,52 c 0.339919,-0.55 0.816476,-1 1.059017,-1 C 30.801558,51 31,51.45 31,52 31,52.55 30.523442,53 29.940983,53 29.358524,53 29.160081,52.55 29.5,52 Z M 46,47.478561 c 0,-1.595841 4.582177,-4.229717 5.595532,-3.216362 0.322894,0.322894 0.290668,1.520992 -0.07161,2.66244 C 50.734919,49.410557 46,49.88536 46,47.478561 Z"
       id="path3352"
       inkscape:connector-curvature="0" />
    <path
       style="fill:#764f46"
       d="m 217.5,219.98555 c -14.38449,-0.90223 -16.45219,-1.76856 -16.48469,-6.90681 -0.008,-1.33169 -0.74489,-3.22743 -1.63659,-4.21275 -1.04868,-1.15878 -1.34615,-2.42272 -0.84228,-3.57874 0.42845,-0.98299 0.70344,-2.2838 0.6111,-2.8907 -0.27643,-1.81665 5.04788,-6.48563 8.08968,-7.09399 1.5586,-0.31172 3.28123,-1.40277 3.82806,-2.42455 0.82902,-1.54903 1.31413,-1.65801 2.91901,-0.65575 2.52229,1.5752 3.48657,0.50457 1.87285,-2.0794 -2.04513,-3.27478 -0.29295,-3.57705 3.58579,-0.61859 4.96561,3.78746 7.83174,10.53896 7.30676,17.21194 -0.34704,4.41115 -0.12342,5.32779 1.41918,5.81739 1.81661,0.57657 2.87308,8.67181 1.08113,8.28415 -0.4125,-0.0892 -5.7,-0.47273 -11.75,-0.8522 z M 223,204 c 0,-0.55 -0.45,-1 -1,-1 -0.55,0 -1,0.45 -1,1 0,0.55 0.45,1 1,1 0.55,0 1,-0.45 1,-1 z m -5.63837,-7.5 c -0.62861,-1.63811 -1.37609,-1.81542 -3.7741,-0.89522 -2.20742,0.84707 -0.95344,2.39522 1.9401,2.39522 1.73102,0 2.2475,-0.42242 1.834,-1.5 z M 128.5,212.40081 c -1.1,-0.17975 -13.925,-1.01228 -28.5,-1.85006 -14.575,-0.83778 -34.98746,-2.06752 -45.361023,-2.73274 l -18.861023,-1.2095 -2.417958,-3.55425 c -3.996933,-5.87526 -7.414135,-10.4657 -8.207952,-11.02601 -3.407849,-2.4054 -5.189667,-6.99063 -3.408655,-8.77164 2.629527,-2.62953 5.362031,-8.81832 4.679185,-10.59778 -0.390662,-1.01805 0.437715,-2.05234 2.496375,-3.11692 C 30.613527,168.66561 32,167.54052 32,167.04171 c 0,-0.49882 0.851413,-1.17716 1.892029,-1.50744 C 37.236678,164.47272 36.720959,153 33.328592,153 30.750241,153 29.95833,149.42185 32.041749,147.18556 33.118787,146.0295 34,144.61481 34,144.04181 34,143.46882 34.675,143 35.5,143 c 1.133333,0 1.5,-1.22222 1.5,-5 l 0,-5 -3.940983,0 c -2.167541,0 -4.219098,0.45 -4.559017,1 -0.948422,1.53458 -4.5,1.18654 -4.5,-0.44098 0,-1.9485 -2.049129,-3.09756 -2.943431,-1.65055 -0.442892,0.71661 -1.421884,-0.39219 -2.544669,-2.88208 -1.003664,-2.22573 -1.536426,-4.3352 -1.183915,-4.68771 0.35251,-0.35251 -0.02381,-1.13542 -0.836262,-1.7398 -2.721705,-2.02467 -3.562378,-10.44018 -1.398021,-13.99481 4.077805,-6.69718 4.310545,-7.48021 2.968624,-9.987613 -1.006245,-1.880185 -1.014011,-2.838217 -0.0378,-4.662292 1.032011,-1.928329 0.958792,-2.493192 -0.457402,-3.528738 C 15.858741,89.176224 20.830411,84 23.738636,84 c 0.577419,0 2.426001,-1.285514 4.107958,-2.856698 1.681958,-1.571183 5.217048,-3.45037 7.855756,-4.175969 2.638707,-0.7256 5.169409,-1.802586 5.623781,-2.393302 0.574535,-0.746938 0.980598,-0.693347 1.333333,0.175969 0.278962,0.6875 2.157203,1.250615 4.173869,1.251367 C 48.85,76.002119 54.1,76.612961 58.5,77.358793 c 4.781101,0.810432 13.968861,1.274543 22.83454,1.153466 17.727485,-0.242102 19.45513,0.0053 19.85979,2.843676 0.18759,1.315783 1.14682,2.263836 2.48305,2.454099 3.02309,0.430454 5.15617,3.056768 3.37619,4.156858 -0.97165,0.600513 -0.70366,1.00939 1.02019,1.556519 1.78908,0.567832 2.6705,0.241318 3.7541,-1.390677 C 113.47036,85.659006 117.1991,85.330052 119,87.5 c 0.68469,0.825 1.99045,1.5 2.90169,1.5 0.91123,0 2.30547,0.9 3.09831,2 0.79284,1.1 2.46718,2 3.72076,2 C 130.33333,93 131,92.41501 131,91 c 0,-1.555556 0.66667,-2 3,-2 1.84022,0 3,0.517835 3,1.339485 0,0.736717 1.125,1.852069 2.5,2.478561 1.375,0.626492 2.5,1.545302 2.5,2.0418 0,0.496498 2.025,1.412625 4.5,2.035837 3.33279,0.839206 4.5,1.62002 4.5,3.010307 0,1.16835 0.94402,2.11413 2.5,2.50465 2.81654,0.70691 7.5,-0.19838 7.5,-1.44971 0,-2.676225 4.70927,-7.879599 7.16667,-7.918604 1.46666,-0.02328 2.8395,-0.560826 3.05074,-1.194548 0.47169,-1.415072 9.40696,-3.798167 10.49637,-2.799454 1.1467,1.051219 14.2079,-0.776068 16.67888,-2.333406 1.15903,-0.730487 4.13154,-1.457655 6.60556,-1.615929 2.47402,-0.158274 4.78416,-0.464494 5.13365,-0.680489 0.34949,-0.215995 3.76269,-0.836244 7.58489,-1.37833 3.82221,-0.542086 8.26206,-1.670114 9.86635,-2.50673 1.60429,-0.836615 4.28939,-1.523891 5.96689,-1.527279 1.6775,-0.0034 3.53518,-0.491341 4.12818,-1.084339 1.44981,-1.449809 6.8903,-0.764202 6.57182,0.828178 -0.15457,0.772849 0.87031,1.25 2.6849,1.25 1.6142,0 4.2017,0.545259 5.75,1.211687 1.54831,0.666428 4.12371,1.228928 5.72313,1.25 6.47374,0.08529 1.17031,4.499679 -5.47903,4.560549 -1.33595,0.01223 -3.54877,0.882582 -4.91739,1.934116 l -2.48838,1.911881 2.73838,1.041133 C 249.76773,92.481989 251,93.411636 251,93.975249 251,94.538862 251.56314,95 252.25142,95 c 2.84615,0 16.15329,14.02743 14.66062,15.45417 -1.90146,1.81751 -9.51097,3.00379 -10.36843,1.61639 -0.96858,-1.5672 -5.16528,-1.30604 -6.90075,0.42944 -0.825,0.825 -2.0087,1.5 -2.63045,1.5 -0.62174,0 -0.85036,0.45318 -0.50804,1.00706 0.34231,0.55389 -0.0811,1.27703 -0.94099,1.60699 C 244.70352,116.94401 244,117.84083 244,118.60699 244,119.37314 243.325,120 242.5,120 c -0.825,0 -1.5,0.62686 -1.5,1.39301 0,0.76616 -0.675,1.65203 -1.5,1.96862 -0.825,0.31658 -1.5,1.26242 -1.5,2.10186 0,0.84828 -2.11001,2.49431 -4.75,3.70551 -2.6125,1.19858 -5.55503,3.00089 -6.53896,4.00512 -0.98392,1.00423 -2.67142,1.82588 -3.75,1.82588 -1.07857,0 -1.96104,0.47958 -1.96104,1.06574 0,2.03374 2.07809,4.93426 3.53518,4.93426 0.80565,0 1.46482,0.45 1.46482,1 0,0.55 -0.4151,1 -0.92245,1 -1.12791,0 -3.41919,6.4549 -3.66943,10.33738 -0.10058,1.56055 -0.68355,3.33805 -1.2955,3.95 C 219.50068,157.89932 219,159.21 219,160.2 c 0,1.21159 -0.75185,1.8 -2.3,1.8 -1.265,0 -2.85874,0.55874 -3.54164,1.24164 -0.85705,0.85705 -1.46105,0.91139 -1.95,0.17542 -0.3896,-0.58642 -2.71397,-2.15766 -5.16528,-3.49164 -2.4513,-1.33398 -5.2638,-3.21292 -6.25,-4.17542 -0.98619,-0.9625 -2.25632,-1.75 -2.8225,-1.75 -5.0914,0 -18.20189,-15.76207 -18.139,-21.8076 0.0589,-5.66596 1.27589,-12.1924 2.27346,-12.1924 0.49223,0 0.89496,-0.45 0.89496,-1 0,-0.55 -0.37755,-0.8875 -0.839,-0.75 -1.22428,0.3648 -6.161,-5.76051 -6.161,-7.64436 0,-1.78607 -0.77949,-1.98994 -6.3188,-1.6527 -2.33891,0.1424 -4.48591,-0.37122 -5.54024,-1.32537 -1.51392,-1.37008 -2.05431,-1.38516 -4.48304,-0.12512 -1.5189,0.78801 -4.2508,1.37676 -6.07091,1.30834 -4.04803,-0.15218 -9.24202,3.5584 -13.06287,9.33209 -2.40847,3.63945 -3.01654,4.00864 -5.71389,3.46917 -4.0659,-0.81318 -10.547,5.1428 -8.91483,8.19253 0.55603,1.03897 0.63687,2.29547 0.17963,2.79222 -1.52265,1.65425 -1.87709,10.23088 -0.53009,12.82721 0.71051,1.36952 1.44448,3.28264 1.63104,4.25138 0.29783,1.54652 0.61817,1.46192 2.62636,-0.69362 1.92873,-2.07025 2.43445,-2.22201 3.22708,-0.96837 1.46414,2.31569 1.13899,3.98513 -0.77944,4.00191 -3.90578,0.0342 -4.72571,1.51325 -3.27524,5.90823 1.38918,4.20923 3.02524,5.44035 3.02524,2.27646 0,-2.26767 1.88636,-4.2 4.10009,-4.2 1.31212,0 1.68184,0.8558 1.62008,3.75 -0.20884,9.78697 0.6389,26.99809 1.43439,29.12164 0.57688,1.53995 0.4964,2.844 -0.22949,3.71864 -0.82579,0.99502 -0.79518,3.1529 0.11714,8.25794 2.07383,11.60443 0.73013,13.23122 -9.54221,11.55259 z m 107.21958,-93.50762 c 3.61429,-2.01423 4.39006,-2.6997 8.64198,-7.63601 3.1193,-3.6214 -1.80153,-7.07211 -9.82868,-6.89231 -5.80687,0.13007 -9.34159,2.13513 -3.76401,2.13513 3.88547,0 4.25826,4.70734 0.77884,9.83456 -3.7629,5.54494 -2.53643,6.29714 4.17187,2.55863 z M 206.19167,191.925 c 0.19708,-0.59125 0.78583,-1.075 1.30833,-1.075 0.5225,0 1.11125,0.48375 1.30833,1.075 0.19709,0.59125 -0.39166,1.075 -1.30833,1.075 -0.91667,0 -1.50542,-0.48375 -1.30833,-1.075 z M 27.575035,162.94057 C 26.398066,161.75406 26.134389,161 26.896463,161 28.156846,161 31,163.3755 31,164.42857 c 0,1.0962 -1.514031,0.43842 -3.424965,-1.488 z M 109.44615,80.912868 c -0.36954,-0.597923 -0.17109,-1.587923 0.44098,-2.2 C 110.70429,77.895711 111,78.184583 111,79.8 c 0,2.414511 -0.51946,2.786548 -1.55385,1.112868 z"
       id="path3350"
       inkscape:connector-curvature="0" />
    <path
       style="fill:#83463c"
       d="m 217.5,219.98555 c -14.38449,-0.90223 -16.45219,-1.76856 -16.48469,-6.90681 -0.008,-1.33169 -0.74489,-3.22743 -1.63659,-4.21275 -1.04868,-1.15878 -1.34615,-2.42272 -0.84228,-3.57874 0.42845,-0.98299 0.70344,-2.2838 0.6111,-2.8907 -0.27643,-1.81665 5.04788,-6.48563 8.08968,-7.09399 1.5586,-0.31172 3.28123,-1.40277 3.82806,-2.42455 0.82902,-1.54903 1.31413,-1.65801 2.91901,-0.65575 2.52229,1.5752 3.48657,0.50457 1.87285,-2.0794 -2.04513,-3.27478 -0.29295,-3.57705 3.58579,-0.61859 4.96561,3.78746 7.83174,10.53896 7.30676,17.21194 -0.34704,4.41115 -0.12342,5.32779 1.41918,5.81739 1.81661,0.57657 2.87308,8.67181 1.08113,8.28415 -0.4125,-0.0892 -5.7,-0.47273 -11.75,-0.8522 z M 223,204 c 0,-0.55 -0.45,-1 -1,-1 -0.55,0 -1,0.45 -1,1 0,0.55 0.45,1 1,1 0.55,0 1,-0.45 1,-1 z m -5.63837,-7.5 c -0.62861,-1.63811 -1.37609,-1.81542 -3.7741,-0.89522 -2.20742,0.84707 -0.95344,2.39522 1.9401,2.39522 1.73102,0 2.2475,-0.42242 1.834,-1.5 z M 102.5,210.88272 c -15.4,-1.00967 -36.710061,-2.38061 -47.355692,-3.04654 l -19.355692,-1.21078 -2.423288,-3.5627 c -3.998627,-5.87875 -7.41873,-10.47362 -8.213284,-11.03445 -3.407849,-2.4054 -5.189667,-6.99063 -3.408655,-8.77164 2.629527,-2.62953 5.362031,-8.81832 4.679185,-10.59778 -0.390662,-1.01805 0.437715,-2.05234 2.496375,-3.11692 C 30.613527,168.66561 32,167.54052 32,167.04171 c 0,-0.49882 0.851413,-1.17716 1.892029,-1.50744 C 37.236678,164.47272 36.720959,153 33.328592,153 30.750241,153 29.95833,149.42185 32.041749,147.18556 33.118787,146.0295 34,144.66489 34,144.1531 c 0,-0.51178 1.575,-1.22599 3.5,-1.58712 1.925,-0.36113 3.5,-1.09336 3.5,-1.62718 0,-0.53381 1.35,-0.8677 3,-0.74198 1.65,0.12573 3,0.61277 3,1.08231 0,1.22048 5.275535,0.43529 5.695749,-0.84773 0.192492,-0.58773 -1.572804,-1.93773 -3.922881,-3 -3.882931,-1.75514 -4.244762,-2.22391 -3.964882,-5.13671 0.227399,-2.36662 -0.230501,-3.54161 -1.75,-4.49055 C 41.837555,127.04197 41,125.46033 41,123.91784 c 0,-2.41734 -0.327496,-2.60602 -4.636415,-2.67116 -2.641732,-0.0399 -4.979967,-0.62597 -5.434963,-1.36217 -0.620395,-1.00382 -1.315029,-1.03651 -3.113586,-0.14654 -4.741099,2.34604 -9.063614,2.67334 -8.006809,0.60627 0.518588,-1.01433 1.733165,-4.54424 2.69906,-7.84424 0.965895,-3.3 2.371894,-7.41801 3.124443,-9.15113 1.806721,-4.160882 1.821288,-4.096801 -1.58222,-6.960664 -1.929952,-1.623947 -2.735891,-3.041908 -2.330061,-4.099485 0.385437,-1.004432 0.216994,-1.367475 -0.444725,-0.958509 -0.585835,0.362065 -1.363061,-0.11803 -1.727168,-1.066879 -0.364108,-0.948849 -0.161014,-1.89218 0.45132,-2.096292 0.612334,-0.204111 1.875587,-1.125994 2.807229,-2.048628 C 29.801106,79.191044 61,75.890245 61,82.077552 61,82.584898 61.873442,83 62.940983,83 c 1.067541,0 2.219098,0.45 2.559017,1 0.339919,0.55 1.626476,1 2.859017,1 1.232541,0 2.669624,0.428641 3.193519,0.952536 0.873086,0.873086 6.90333,1.952295 19.947464,3.569919 2.75,0.341032 6.0125,0.773367 7.25,0.960745 1.66758,0.2525 2.25,-0.154222 2.25,-1.571256 C 101,87.860375 100.35277,87 99.561718,87 98.770663,87 96.706846,85.706145 94.975458,84.124766 92.26431,81.648515 91.35377,81.35637 88.41374,82.019455 86.536183,82.442913 85,82.395341 85,81.913741 c 0,-0.4816 -1.181535,-1.172183 -2.625633,-1.534629 -4.87451,-1.223424 0.06846,-2.478277 7.847479,-1.992211 4.002985,0.250123 8.065654,0.490393 9.028154,0.533934 1.06637,0.04824 1.75,0.872722 1.75,2.11055 0,1.117261 0.7875,2.27473 1.75,2.572151 4.69468,1.4507 6.9998,4.396464 3.44032,4.396464 -1.08699,0 -2.23936,0.685413 -2.56083,1.523139 -0.46324,1.207201 -0.20783,1.321563 1.23134,0.551341 0.9987,-0.534489 2.75005,-0.727493 3.89188,-0.428898 1.44213,0.377126 2.41829,-0.09658 3.19685,-1.551341 C 113.26239,85.641199 117.18308,85.310747 119,87.5 c 0.68469,0.825 1.99045,1.5 2.90169,1.5 0.91123,0 2.30547,0.9 3.09831,2 0.79284,1.1 2.46718,2 3.72076,2 C 130.33333,93 131,92.41501 131,91 c 0,-1.555556 0.66667,-2 3,-2 1.84022,0 3,0.517835 3,1.339485 0,0.736717 1.125,1.852069 2.5,2.478561 1.375,0.626492 2.5,1.545302 2.5,2.0418 0,0.496498 1.96471,1.397443 4.36602,2.0021 5.10867,1.286378 8.1936,12.138054 3.45063,12.138054 -1.85991,0 -7.6397,5.13422 -10.29251,9.14288 -2.40847,3.63945 -3.01654,4.00864 -5.71389,3.46917 -4.0659,-0.81318 -10.547,5.1428 -8.91483,8.19253 0.55603,1.03897 0.63687,2.29547 0.17963,2.79222 -1.52265,1.65425 -1.87709,10.23088 -0.53009,12.82721 0.71051,1.36952 1.44448,3.28264 1.63104,4.25138 0.29783,1.54652 0.61817,1.46192 2.62636,-0.69362 1.92873,-2.07025 2.43445,-2.22201 3.22708,-0.96837 1.46414,2.31569 1.13899,3.98513 -0.77944,4.00191 -3.90578,0.0342 -4.72571,1.51325 -3.27524,5.90823 1.38918,4.20923 3.02524,5.44035 3.02524,2.27646 0,-2.26767 1.88636,-4.2 4.10009,-4.2 1.31212,0 1.68184,0.8558 1.62008,3.75 -0.20884,9.78697 0.6389,26.99809 1.43439,29.12164 0.57688,1.53995 0.4964,2.844 -0.22949,3.71864 -0.82579,0.99502 -0.79518,3.1529 0.11714,8.25794 0.67928,3.80101 0.9391,8.09013 0.57737,9.53136 -0.77689,3.09539 2.68363,3.04719 -36.11958,0.50314 z M 59.180913,138.78091 c -0.553657,-0.55365 -1.526604,-0.6853 -2.162106,-0.29253 -0.81518,0.50381 -0.619968,1.22909 0.662868,2.46279 2.02384,1.94634 3.49141,-0.17809 1.499238,-2.17026 z m 5.254326,3.32387 c 0.304301,-0.49236 -0.155946,-1.16736 -1.02277,-1.5 C 61.183683,139.74952 61,139.81768 61,141.5 c 0,1.62192 2.531206,2.06754 3.435239,0.60478 z M 121,126.89301 C 121,124.09922 120.57646,123 119.5,123 c -1.10955,0 -1.5,1.16318 -1.5,4.46862 0,3.56125 0.30458,4.35173 1.5,3.89301 0.97789,-0.37526 1.5,-1.93066 1.5,-4.46862 z M 61.966166,118.60498 C 60.334775,116.18771 59,113.51427 59,112.66399 c 0,-0.85027 -0.45734,-1.82861 -1.016312,-2.17407 -1.462002,-0.90357 -0.04897,-2.72895 1.617463,-2.08948 C 60.370518,108.69568 61,108.50135 61,107.96862 61,107.43588 60.361804,107 59.581787,107 c -0.780016,0 -2.127119,-0.27203 -2.99356,-0.60452 -1.05048,-0.4031 -1.854507,0.15012 -2.413221,1.66047 -0.733538,1.98294 -0.920768,2.04897 -1.503567,0.53022 C 51.876919,106.51568 49,108.68285 49,111.35185 c 0,3.7285 9.315555,11.63699 13.716166,11.64441 2.174135,0.004 2.159911,-0.0796 -0.75,-4.39128 z M 43,120.16667 c 0,-1.4338 -1.13601,-2.05171 -2.681611,-1.45861 -1.211313,0.46483 -1.23946,0.7266 -0.152235,1.41579 C 41.8761,121.20778 43,121.22476 43,120.16667 Z M 206.19167,191.925 c 0.19708,-0.59125 0.78583,-1.075 1.30833,-1.075 0.5225,0 1.11125,0.48375 1.30833,1.075 0.19709,0.59125 -0.39166,1.075 -1.30833,1.075 -0.91667,0 -1.50542,-0.48375 -1.30833,-1.075 z M 27.575035,162.94057 C 26.398066,161.75406 26.134389,161 26.896463,161 28.156846,161 31,163.3755 31,164.42857 c 0,1.0962 -1.514031,0.43842 -3.424965,-1.488 z M 210,157.36412 c -2.3043,-0.73429 -13.31145,-5.49465 -15,-6.48719 -0.825,-0.48494 -2.5125,-1.31949 -3.75,-1.85457 -1.2375,-0.53507 -2.25,-1.659 -2.25,-2.49761 C 189,145.68614 188.6098,145 188.13289,145 c -4.07531,0 -7.44017,-11.65205 -5.14736,-17.82459 2.50493,-6.74357 2.48718,-12.6571 -0.0451,-15.01625 l -2.0427,-1.90307 3.24922,-3.24922 3.24922,-3.24923 -6.1981,0.71937 C 177.35376,104.92319 175,104.8268 175,104.22319 c 0,-0.53526 -1.31616,-1.23642 -2.92481,-1.55815 -8.42408,-1.68482 4.41354,-10.076909 16.92481,-11.063928 4.125,-0.325424 10.425,-1.538141 14,-2.694929 8.413,-2.722252 17.42319,-3.924968 33.5,-4.471712 l 13,-0.442107 -6,2.593599 c -3.3,1.426479 -8.16932,3.271375 -10.82072,4.099768 -6.03478,1.885491 -5.29287,2.717704 2.63138,2.951663 C 246.69959,93.973644 264,103.06454 264,108.71286 c 0,2.05983 -11.70928,1.35855 -13.06415,-0.78242 -0.74099,-1.17092 -0.908,-1.11294 -0.92054,0.31956 -0.008,0.9625 -0.69031,1.75 -1.51531,1.75 -0.825,0 -1.5,-0.60769 -1.5,-1.35043 0,-3.7413 -10.50056,-8.13888 -13.49667,-5.65234 -0.74522,0.61849 -1.95084,1.0089 -2.67914,0.86759 C 228.9114,103.4937 225,104.97289 225,106.06739 c 0,0.91051 2.73866,1.34208 6.25,0.98491 3.43702,-0.34962 2.24364,6.39554 -1.95345,11.04121 -3.2817,3.63246 -3.50946,4.20784 -2,5.05257 2.92627,1.63762 2.22175,6.68677 -1.04655,7.50051 -1.5125,0.37658 -3.26026,1.37582 -3.88391,2.22053 -0.69312,0.93881 -2.56219,1.49535 -4.80808,1.43169 -3.61761,-0.10254 -3.66336,-0.0556 -2.97243,3.04852 1.15492,5.18864 1.00939,6.08905 -1.13856,7.04427 -3.43581,1.52796 -4.74278,7.49607 -1.80315,8.23386 2.47465,0.6211 2.74296,1.2029 1.74914,3.79275 -0.63341,1.65063 -0.92573,1.73213 -3.39301,0.94591 z m -2,-37.85269 C 208,118.38638 204.45538,115 203.27776,115 c -1.84073,0 -1.57156,2.05649 0.47224,3.60795 1.73025,1.31345 4.25,1.8491 4.25,0.90348 z m -5.27083,-6.1156 c -0.3323,-0.33229 -1.1948,-0.36781 -1.91667,-0.0789 -0.79773,0.31922 -0.56078,0.55618 0.60417,0.60416 1.05416,0.0434 1.64479,-0.19292 1.3125,-0.52522 z M 244.5,113 c 0.33992,-0.55 1.06803,-1 1.61803,-1 0.55,0 0.72189,0.45 0.38197,1 -0.33992,0.55 -1.06803,1 -1.61803,1 -0.55,0 -0.72189,-0.45 -0.38197,-1 z m -15,-31 c 0.33992,-0.55 1.04148,-1 1.55902,-1 0.51754,0 0.94098,0.45 0.94098,1 0,0.55 -0.70156,1 -1.55902,1 -0.85746,0 -1.2809,-0.45 -0.94098,-1 z M 109.44615,80.912868 c -0.36954,-0.597923 -0.17109,-1.587923 0.44098,-2.2 C 110.70429,77.895711 111,78.184583 111,79.8 c 0,2.414511 -0.51946,2.786548 -1.55385,1.112868 z"
       id="path3348"
       inkscape:connector-curvature="0" />
    <path
       style="fill:#754439"
       d="m 208.06971,218.73526 c -3.18062,-1.61664 -4.56205,-6.53375 -2.48149,-8.83274 2.25844,-2.49555 5.22151,-1.19581 7.51278,3.29545 1.67881,3.29074 2.45525,3.89442 4.70539,3.65839 2.88902,-0.30304 5.19361,0.67436 5.19361,2.20266 0,1.3815 -12.09115,1.11931 -14.93029,-0.32376 z M 77.5,208.98938 C 50.912194,206.97794 54,207.50212 54,205 c 0,-1.40287 0.671771,-2.00457 2.25,-2.01531 3.678839,-0.025 4.474081,-1.17671 5.205095,-7.53799 C 62.129521,189.57783 66.980459,182 70.062978,182 70.57834,182 71,180.875 71,179.5 c 0,-2.72227 -1.719553,-3.39441 -2.627936,-1.0272 -0.310842,0.81004 -2.096718,1.76012 -3.968615,2.11129 C 62.531552,180.93526 61,181.64906 61,182.17031 c 0,0.52125 -0.45,0.66961 -1,0.32969 -0.55,-0.33992 -1,-1.71648 -1,-3.05902 C 59,177.39545 58.513991,177 56,177 c -2.554331,0 -3,0.3814 -3,2.56739 0,2.20073 -0.321328,2.46861 -2.25,1.87577 -3.264926,-1.00359 -3.331159,-1.25307 -0.927227,-3.49268 C 51.020248,176.83487 52,175.48328 52,174.94695 c 0,-0.53633 1.407919,-2.23312 3.12871,-3.77064 l 3.128709,-2.79551 -2.49338,-2.6904 C 54.39268,164.21068 52.75976,163 52.135329,163 51.510898,163 51,162.19515 51,161.21144 c 0,-0.98371 -0.904957,-3.56358 -2.011016,-5.73305 -1.893583,-3.71415 -1.908182,-3.98078 -0.25,-4.56592 1.268036,-0.44747 2.057784,0.0982 2.821126,1.94908 1.370678,3.32358 2.683388,0.60594 1.811958,-3.75121 -0.627259,-3.13629 0.956714,-4.91229 2.924572,-3.27911 2.219591,1.84209 4.739812,-1.04819 3.841812,-4.40593 -0.620439,-2.31991 -1.47886,-3.031 -4.208926,-3.48655 C 49.805061,136.91678 45,134.03968 45,131.39453 c 0,-1.30767 -0.9,-2.93964 -2,-3.6266 -1.16726,-0.72897 -2,-2.33203 -2,-3.85009 0,-2.41734 -0.327496,-2.60602 -4.636415,-2.67116 -2.641732,-0.0399 -4.979967,-0.62597 -5.434963,-1.36217 -0.620395,-1.00382 -1.315029,-1.03651 -3.113586,-0.14654 -4.741099,2.34604 -9.063614,2.67334 -8.006809,0.60627 0.518588,-1.01433 1.733165,-4.54424 2.69906,-7.84424 0.965895,-3.3 2.371894,-7.41801 3.124443,-9.15113 1.806721,-4.160882 1.821288,-4.096801 -1.58222,-6.960664 -1.929952,-1.623947 -2.735891,-3.041908 -2.330061,-4.099485 0.385437,-1.004432 0.216994,-1.367475 -0.444725,-0.958509 -0.585835,0.362065 -1.363061,-0.11803 -1.727168,-1.066879 -0.364108,-0.948849 -0.161014,-1.89218 0.45132,-2.096292 0.612334,-0.204111 1.875587,-1.125994 2.807229,-2.048628 C 29.801106,79.191044 61,75.890245 61,82.077552 61,82.584898 61.873442,83 62.940983,83 c 1.067541,0 2.219098,0.45 2.559017,1 0.339919,0.55 1.626476,1 2.859017,1 1.232541,0 2.669624,0.428641 3.193519,0.952536 0.880722,0.880722 9.372235,2.392015 18.947464,3.37221 8.795831,0.900409 20.5,4.867706 20.5,6.948771 0,1.524449 0.48673,1.832462 2.19131,1.386704 2.41638,-0.631897 8.80869,4.972419 8.80869,7.722829 0,0.81519 0.9,1.76782 2,2.11695 1.1,0.34913 2,1.01765 2,1.4856 0,0.46795 0.27314,1.56263 0.60699,2.43261 0.45374,1.18244 -0.0242,1.58179 -1.89301,1.58179 -2.55313,0 -3.71398,1.61071 -3.71398,5.15322 0,1.0943 -0.67024,2.65988 -1.48943,3.47907 -1.0809,1.0809 -1.45082,3.52031 -1.34869,8.89379 0.1622,8.53323 -0.8707,10.50294 -5.15368,9.82793 -2.39664,-0.37771 -3.1575,0.0314 -4.36001,2.34421 -0.80119,1.54098 -2.8373,4.15178 -4.52467,5.80178 -1.68738,1.65 -3.08046,3.49027 -3.09574,4.08948 -0.0153,0.59922 -1.15278,1.60207 -2.52778,2.22857 -1.414855,0.64465 -2.5,1.98029 -2.5,3.0771 0,1.06592 -1.149359,2.77529 -2.554131,3.79859 -2.764644,2.01391 -2.572286,4.80928 0.396512,5.76217 5.071841,1.62789 9.335749,9.0799 6.277019,10.9703 -4.113214,2.5421 -1.301171,10.01005 2.96743,7.88059 3.4794,-1.73576 7.91317,-0.55059 7.91317,2.11523 0,0.80569 1.26586,2.21266 2.81303,3.12659 2.71776,1.60543 2.80864,1.92222 2.68354,9.35505 -0.19713,11.7127 2.24707,11.20591 -38.99657,8.08571 z M 78,174.94098 C 78,173.66667 77.313063,173 76,173 c -2.239874,0 -2.857457,3.52575 -0.75,4.28172 1.822215,0.65365 2.75,-0.13606 2.75,-2.34074 z m -13.564761,-32.8362 c 0.304301,-0.49236 -0.155946,-1.16736 -1.02277,-1.5 C 61.183683,139.74952 61,139.81768 61,141.5 c 0,1.62192 2.531206,2.06754 3.435239,0.60478 z m -2.469073,-23.4998 C 60.334775,116.18771 59,113.51427 59,112.66399 c 0,-0.85027 -0.45734,-1.82861 -1.016312,-2.17407 -1.462002,-0.90357 -0.04897,-2.72895 1.617463,-2.08948 C 60.370518,108.69568 61,108.50135 61,107.96862 61,107.43588 60.361804,107 59.581787,107 c -0.780016,0 -2.127119,-0.27203 -2.99356,-0.60452 -1.05048,-0.4031 -1.854507,0.15012 -2.413221,1.66047 -0.733538,1.98294 -0.920768,2.04897 -1.503567,0.53022 C 51.876919,106.51568 49,108.68285 49,111.35185 c 0,3.7285 9.315555,11.63699 13.716166,11.64441 2.174135,0.004 2.159911,-0.0796 -0.75,-4.39128 z M 43,120.16667 c 0,-1.4338 -1.13601,-2.05171 -2.681611,-1.45861 -1.211313,0.46483 -1.23946,0.7266 -0.152235,1.41579 C 41.8761,121.20778 43,121.22476 43,120.16667 Z m -0.302235,64.91328 c 0.203486,-0.78103 -0.194735,-1.76906 -0.884935,-2.19563 -2.35425,-1.455 0.114094,-2.15723 3.155105,-0.8976 3.642745,1.50887 3.949988,3.01328 0.615398,3.01328 -1.329166,0 -2.605414,0.3375 -2.836105,0.75 -0.230691,0.4125 -0.252949,0.11098 -0.04946,-0.67005 z M 210,157.36412 c -2.3043,-0.73429 -13.31145,-5.49465 -15,-6.48719 -0.825,-0.48494 -2.5125,-1.31949 -3.75,-1.85457 -1.2375,-0.53507 -2.25,-1.659 -2.25,-2.49761 C 189,145.68614 188.6098,145 188.13289,145 c -4.07531,0 -7.44017,-11.65205 -5.14736,-17.82459 2.50493,-6.74357 2.48718,-12.6571 -0.0451,-15.01625 l -2.0427,-1.90307 3.24922,-3.24922 3.24922,-3.24923 -6.1981,0.71937 C 177.35376,104.92319 175,104.8268 175,104.22319 c 0,-0.53526 -1.31616,-1.23642 -2.92481,-1.55815 -8.42408,-1.68482 4.41354,-10.076909 16.92481,-11.063928 4.125,-0.325424 10.425,-1.538141 14,-2.694929 8.413,-2.722252 17.42319,-3.924968 33.5,-4.471712 l 13,-0.442107 -6,2.593599 c -3.3,1.426479 -8.16932,3.271375 -10.82072,4.099768 -6.03478,1.885491 -5.29287,2.717704 2.63138,2.951663 C 246.69959,93.973644 264,103.06454 264,108.71286 c 0,2.05983 -11.70928,1.35855 -13.06415,-0.78242 -0.74099,-1.17092 -0.908,-1.11294 -0.92054,0.31956 -0.008,0.9625 -0.69031,1.75 -1.51531,1.75 -0.825,0 -1.5,-0.60769 -1.5,-1.35043 0,-3.7413 -10.50056,-8.13888 -13.49667,-5.65234 -0.74522,0.61849 -1.95084,1.0089 -2.67914,0.86759 C 228.9114,103.4937 225,104.97289 225,106.06739 c 0,0.91051 2.73866,1.34208 6.25,0.98491 3.43702,-0.34962 2.24364,6.39554 -1.95345,11.04121 -3.2817,3.63246 -3.50946,4.20784 -2,5.05257 2.92627,1.63762 2.22175,6.68677 -1.04655,7.50051 -1.5125,0.37658 -3.26026,1.37582 -3.88391,2.22053 -0.69312,0.93881 -2.56219,1.49535 -4.80808,1.43169 -3.61761,-0.10254 -3.66336,-0.0556 -2.97243,3.04852 1.15492,5.18864 1.00939,6.08905 -1.13856,7.04427 -3.43581,1.52796 -4.74278,7.49607 -1.80315,8.23386 2.47465,0.6211 2.74296,1.2029 1.74914,3.79275 -0.63341,1.65063 -0.92573,1.73213 -3.39301,0.94591 z m -2,-37.85269 C 208,118.38638 204.45538,115 203.27776,115 c -1.84073,0 -1.57156,2.05649 0.47224,3.60795 1.73025,1.31345 4.25,1.8491 4.25,0.90348 z m -5.27083,-6.1156 c -0.3323,-0.33229 -1.1948,-0.36781 -1.91667,-0.0789 -0.79773,0.31922 -0.56078,0.55618 0.60417,0.60416 1.05416,0.0434 1.64479,-0.19292 1.3125,-0.52522 z M 244.5,113 c 0.33992,-0.55 1.06803,-1 1.61803,-1 0.55,0 0.72189,0.45 0.38197,1 -0.33992,0.55 -1.06803,1 -1.61803,1 -0.55,0 -0.72189,-0.45 -0.38197,-1 z m -15,-31 c 0.33992,-0.55 1.04148,-1 1.55902,-1 0.51754,0 0.94098,0.45 0.94098,1 0,0.55 -0.70156,1 -1.55902,1 -0.85746,0 -1.2809,-0.45 -0.94098,-1 z"
       id="path3346"
       inkscape:connector-curvature="0" />
    <path
       style="fill:#6c3b31"
       d="m 92,209.82703 c -5.225,-0.47757 -13.971022,-1.19652 -19.435605,-1.59767 -9.035472,-0.66328 -9.792635,-0.87169 -8.357504,-2.30043 0.867956,-0.86409 2.383659,-4.12659 3.368228,-7.25 C 69.274966,193.2864 69.531249,193 72.656942,193 c 2.646028,0 3.595998,-0.58845 4.843058,-3 1.837908,-3.55412 3.457904,-3.89103 3.606299,-0.75 0.224675,4.75563 0.417849,5.72464 1.143701,5.73711 6.364818,0.10938 8.75,-0.1597 8.75,-0.98711 0,-0.55 -1.275,-1 -2.833333,-1 -1.558334,0 -3.086107,-0.25277 -3.395052,-0.56172 C 84.024029,191.6907 88.416958,187 89.864671,187 90.489102,187 91,186.1 91,185 c 0,-1.11111 0.666667,-2 1.5,-2 1.102441,0 1.5,1.14789 1.5,4.33102 0,5.80591 2.94692,7.66668 8.98558,5.67374 3.59035,-1.18492 4.21424,-1.1339 6.01031,0.49152 2.44758,2.21503 2.70309,6.50372 0.38748,6.50372 -1.11476,0 -1.45709,0.61008 -1.10272,1.96521 0.34587,1.3226 -0.0863,2.15571 -1.32155,2.54777 -1.05382,0.33447 -1.96826,1.72969 -2.14729,3.27624 -0.36594,3.16126 -0.42228,3.17022 -12.81181,2.03781 z M 70.25,165.59178 c -3.409804,-3.59723 -3.254073,-12.17717 0.25,-13.77373 1.375,-0.6265 2.5,-1.63504 2.5,-2.24122 0,-0.60617 -1.125,-1.94697 -2.5,-2.97955 -3.092902,-2.32268 -3.159206,-3.8935 -0.25,-5.92286 l 2.25,-1.56952 -2.79966,-0.0524 c -1.539813,-0.0289 -4.122598,-0.73657 -5.739522,-1.57271 -1.616924,-0.83615 -3.167414,-1.52196 -3.445532,-1.52404 -3.015654,-0.0225 -6.281938,-1.40022 -5.869269,-2.47562 0.274244,-0.71467 -0.34564,-1.56736 -1.377521,-1.89486 -1.031881,-0.32751 -3.154681,-2.61816 -4.717332,-5.09034 C 46.988513,124.02269 45.377718,122 44.971621,122 c -0.406097,0 -0.989778,-0.96143 -1.297069,-2.13651 -0.503599,-1.92577 -1.032969,-2.07516 -5.366632,-1.51453 -10.570348,1.36746 -15.579127,-3.15216 -11.672502,-10.53256 0.965497,-1.82402 1.867388,-3.97907 2.004203,-4.789 C 28.93142,101.29997 31.816239,99 33.69113,99 34.411008,99 35,98.55 35,98 35,97.45 33.232143,97 31.071429,97 25.79623,97 21.233212,92.097883 25.25,90.745955 c 0.968004,-0.325801 0.932445,-0.805356 -0.157618,-2.125715 -0.978608,-1.185357 -1.089202,-2.02342 -0.362868,-2.749754 0.726334,-0.726334 1.249526,-0.713417 1.716635,0.04238 0.798037,1.29125 5.486842,1.415781 7.410614,0.196819 0.986416,-0.625024 1.0427,-1.053788 0.206195,-1.570777 -0.632812,-0.391099 -1.765793,-0.200498 -2.517735,0.423558 -0.751942,0.624057 -1.607758,0.745365 -1.901813,0.269574 -0.966602,-1.563995 5.127584,-4.26206 9.535615,-4.221682 C 41.555561,81.032129 45.525,80.8775 48,80.666739 c 3.245289,-0.276356 5.754711,0.242928 9,1.862403 2.475,1.235083 6.525,2.836879 9,3.559547 2.475,0.722667 4.73257,1.642627 5.016822,2.044353 0.284252,0.401727 4.559252,1.236091 9.5,1.854143 C 85.45757,90.605236 90.4,91.500951 91.5,91.977661 c 1.1,0.47671 3.197309,1.125241 4.660687,1.441178 C 99.375543,94.112915 108,102.46578 108,104.88532 c 0,0.53335 1.4625,2.13957 3.25,3.56938 3.00806,2.40612 3.11972,2.69889 1.5,3.93272 -0.9625,0.73318 -1.75,2.55054 -1.75,4.03856 0,1.48803 -0.49594,3.63217 -1.10208,4.76476 -0.81363,1.52028 -0.7919,2.63883 0.083,4.2736 C 113.30675,131.67871 99.544,156 92.701635,156 c -0.459328,0 -2.492604,1.5711 -4.518389,3.49133 -2.025785,1.92023 -4.470746,3.49523 -5.433246,3.5 C 81.7875,162.9961 81,163.45 81,164 c 0,0.55 -1.0699,1 -2.377555,1 -1.307656,0 -2.937756,0.675 -3.622445,1.5 -1.643157,1.97988 -2.094096,1.89366 -4.75,-0.90822 z m -8.283834,-46.9868 C 60.334775,116.18771 59,113.51427 59,112.66399 c 0,-0.85027 -0.45734,-1.82861 -1.016312,-2.17407 -1.462002,-0.90357 -0.04897,-2.72895 1.617463,-2.08948 C 60.370518,108.69568 61,108.50135 61,107.96862 61,107.43588 60.361804,107 59.581787,107 c -0.780016,0 -2.127119,-0.27203 -2.99356,-0.60452 -1.05048,-0.4031 -1.854507,0.15012 -2.413221,1.66047 -0.733538,1.98294 -0.920768,2.04897 -1.503567,0.53022 -0.610887,-1.59195 -0.79774,-1.60273 -2.269555,-0.13091 -3.980768,3.98077 4.944422,14.51809 12.314282,14.53858 2.173926,0.006 2.159631,-0.0776 -0.75,-4.38886 z M 40.729167,83.395833 c -0.332292,-0.332291 -1.194792,-0.367818 -1.916667,-0.07895 -0.797733,0.319226 -0.560776,0.556183 0.604167,0.604167 1.054166,0.04342 1.644791,-0.192928 1.3125,-0.52522 z M 200,149.5 c 0,-1.71743 -2.55372,-2.03111 -3.54026,-0.43486 -0.43286,0.70039 -1.28761,0.49562 -2.496,-0.59796 -1.01074,-0.91471 -2.31607,-1.36746 -2.90073,-1.00612 -0.58465,0.36133 -1.06301,-0.0598 -1.06301,-0.93575 0,-0.87599 -1.40693,-2.96803 -3.12651,-4.64898 -3.5419,-3.46232 -5.79061,-10.69149 -3.72315,-11.96924 0.72021,-0.44512 1.76604,-0.0639 2.5103,0.91496 1.0924,1.4368 1.28032,1.00377 1.30756,-3.01303 0.0175,-2.58004 -0.4182,-4.9691 -0.9682,-5.30902 -0.55,-0.33992 -1,-2.67937 -1,-5.19877 0,-3.20606 -0.52518,-4.96666 -1.75,-5.86671 -1.63059,-1.19821 -1.56235,-1.48241 1,-4.16496 3.65671,-3.82824 3.47151,-4.57557 -1,-4.03518 -4.85873,0.58719 -9.4489,-0.96307 -9.046,-3.05514 0.62032,-3.221085 7.79664,-6.886457 14.72492,-7.520891 3.61409,-0.330949 9.49608,-1.5422 13.07108,-2.69167 7.11925,-2.289054 18.22767,-3.880773 30.25,-4.334507 9.80218,-0.369944 10.28762,1.46851 1.191,4.510474 -5.78167,1.933424 -5.34569,3.222279 1.16939,3.456983 3.09358,0.111445 7.2593,0.889487 9.25715,1.728981 1.99785,0.839494 4.75746,1.768222 6.13246,2.063841 2.82414,0.607176 12,8.641809 12,10.507529 0,0.66993 -0.46971,0.92776 -1.0438,0.57295 -0.5741,-0.35481 -1.5866,-0.20907 -2.25,0.32388 -1.55513,1.24929 -7.69678,0.32819 -7.73661,-1.16031 -0.0167,-0.62507 -0.48737,-0.35206 -1.04589,0.60671 -0.9109,1.56368 -1.40758,1.35501 -4.82264,-2.0261 -3.97472,-3.93519 -9.06145,-5.3248 -11.64447,-3.18108 -0.71952,0.59714 -1.9041,0.9701 -2.6324,0.82879 C 228.9114,103.4937 225,104.97289 225,106.06739 c 0,0.91051 2.73866,1.34208 6.25,0.98491 3.38139,-0.34396 2.25184,6.38647 -1.83012,10.9047 -2.57827,2.85384 -3.40228,4.5231 -2.9446,5.96511 0.75735,2.3862 -0.99682,6.07789 -2.88802,6.07789 -0.7383,0 -1.92459,0.70153 -2.63618,1.55895 -0.96005,1.15678 -2.28091,1.39217 -5.12024,0.91247 -3.15176,-0.53249 -3.95072,-0.32259 -4.53133,1.19044 -2.40467,6.26647 -8.94166,9.82759 -13.18061,7.18032 -1.98502,-1.23967 -5.1189,-0.56171 -5.1189,1.10738 0,0.55679 1.2375,1.28349 2.75,1.61491 4.94552,1.08365 5.25,1.33908 5.25,4.40415 0,1.66726 -0.225,3.03138 -0.5,3.03138 -0.275,0 -0.5,-0.675 -0.5,-1.5 z M 225,128 c 0,-0.55 -0.47656,-1 -1.05902,-1 -0.58246,0 -0.7809,0.45 -0.44098,1 0.33992,0.55 0.81648,1 1.05902,1 0.24254,0 0.44098,-0.45 0.44098,-1 z m -17,-8.48857 C 208,118.38638 204.45538,115 203.27776,115 c -1.84073,0 -1.57156,2.05649 0.47224,3.60795 1.73025,1.31345 4.25,1.8491 4.25,0.90348 z m -5.27083,-6.1156 c -0.3323,-0.33229 -1.1948,-0.36781 -1.91667,-0.0789 -0.79773,0.31922 -0.56078,0.55618 0.60417,0.60416 1.05416,0.0434 1.64479,-0.19292 1.3125,-0.52522 z"
       id="path3344"
       inkscape:connector-curvature="0" />
    <path
       style="fill:#52352e"
       d="m 87,209.03518 c 0,-1.25707 3.549109,-3.15274 4.368517,-2.33333 C 92.855232,208.18857 91.828991,210 89.5,210 88.125,210 87,209.56583 87,209.03518 Z M 86.697766,152.36443 C 86.313995,151.98066 86,150.16667 86,148.33333 c 0,-3.40464 1.197258,-4.12683 3.952254,-2.384 0.79874,0.50529 1.791587,0.70899 2.206326,0.45266 C 93.302627,145.69493 91.968205,143 90.474051,143 c -2.359006,0 -7.34705,-3.42585 -8.421484,-5.78397 -0.896066,-1.96665 -1.549563,-2.21342 -4.430419,-1.67297 -2.693191,0.50525 -3.790677,0.19242 -5.40538,-1.54076 -1.713684,-1.83943 -2.363677,-1.99404 -4.215766,-1.00284 -1.85152,0.99091 -2.561231,0.82286 -4.595351,-1.0881 C 62.082543,130.66837 61,130.17981 61,130.82569 61,131.47156 60.564123,132 60.031385,132 c -0.532739,0 -0.7143,-0.66274 -0.40347,-1.47275 0.420726,-1.09639 -0.485169,-1.6407 -3.544955,-2.12997 -3.214194,-0.51398 -4.239762,-1.17385 -4.704938,-3.02726 C 51.050861,124.06651 50.385882,123 49.90029,123 c -0.485592,0 -2.173026,-1.35 -3.749855,-3 -2.465503,-2.57991 -3.593908,-3 -8.058358,-3 -9.448902,0 -13.19752,-4.35202 -8.613507,-10 0.669587,-0.825 1.469507,-2.21662 1.7776,-3.09248 C 31.861497,102.18666 37.79971,99 40.401129,99 c 4.161422,0 -4.096179,-4.939661 -8.411636,-5.031803 -1.124137,-0.024 -1.013356,-0.391936 0.451637,-1.5 C 33.508751,91.660688 33.846251,91 33.19113,91 29.431513,91 32.88778,89.188179 37.569067,88.705027 43.342761,88.109129 46,86.745208 46,84.377555 c 0,-2.265807 7.607497,-1.770058 10.03125,0.653695 1.117188,1.117188 3.479688,2.288711 5.25,2.603386 1.770313,0.314675 6.532446,1.650612 10.582519,2.96875 C 75.913842,91.921524 80.059461,93 81.076256,93 c 4.097306,0 12.62017,4.038311 13.748267,6.514216 C 95.447453,100.8814 96.442137,102 97.034932,102 98.479421,102 104,108.1145 104,109.71439 c 0,0.69776 0.9,1.83072 2,2.51768 2.36991,1.48003 2.50139,2.55566 0.57321,4.68919 -1.59893,1.76922 -2.31247,12.03061 -1.13194,16.27842 0.60153,2.16442 0.23564,3.21432 -1.84549,5.29545 -1.42768,1.42768 -2.59578,3.23449 -2.59578,4.01514 0,0.78065 -0.86952,1.88472 -1.932275,2.45348 -1.062752,0.56877 -2.206139,1.89699 -2.54086,2.95161 -0.334722,1.05461 -1.827698,2.35906 -3.317725,2.89878 -1.490027,0.53971 -3.407645,1.26632 -4.261374,1.61468 -0.853729,0.34836 -1.866229,0.31938 -2.25,-0.0644 z m -24.7316,-33.75945 C 60.334775,116.18771 59,113.51427 59,112.66399 c 0,-0.85027 -0.45734,-1.82861 -1.016312,-2.17407 -1.462002,-0.90357 -0.04897,-2.72895 1.617463,-2.08948 C 60.370518,108.69568 61,108.50135 61,107.96862 61,107.43588 60.361804,107 59.581787,107 c -0.780016,0 -2.127119,-0.27203 -2.99356,-0.60452 -1.05048,-0.4031 -1.854507,0.15012 -2.413221,1.66047 -0.733538,1.98294 -0.920768,2.04897 -1.503567,0.53022 C 51.727621,106.12662 49,108.91811 49,112.34358 49,116.04293 57.230491,123 61.606956,123 l 3.325377,0 -2.966167,-4.39502 z M 194.5,134 c -0.33992,-0.55 0.33508,-1 1.5,-1 1.16492,0 1.83992,0.45 1.5,1 -0.33992,0.55 -1.01492,1 -1.5,1 -0.48508,0 -1.16008,-0.45 -1.5,-1 z m 20,-9.1414 c -2.2,-0.51727 -5.02173,-0.68617 -6.27052,-0.37534 -1.24879,0.31083 -3.21851,0.0578 -4.37717,-0.5623 -1.53329,-0.82059 -2.29244,-0.82685 -2.78925,-0.023 -0.74279,1.20186 -10.98915,-0.25286 -14.31387,-2.0322 -1.84799,-0.98902 -1.61361,-7.14707 0.42309,-11.11577 0.95686,-1.86452 -0.56237,-2.54588 -1.67228,-0.75 -0.33992,0.55 -1.04148,1 -1.55902,1 -1.84089,0 -0.89537,-2.1544 2.17715,-4.96072 C 189.78373,102.69128 189.22085,101 184.44098,101 182.049,101 181,100.54272 181,99.5 c 0,-0.825 0.45,-1.5 1,-1.5 0.55,0 1.9,-0.9 3,-2 1.1,-1.1 3.29138,-2 4.86973,-2 1.57835,0 5.51585,-0.843684 8.75,-1.874853 3.23415,-1.03117 10.83027,-2.400621 16.88027,-3.043225 6.05,-0.642604 12.45425,-1.34429 14.23168,-1.559302 4.59423,-0.555759 5.06977,1.244564 0.79998,3.0286 -4.81732,2.012801 -3.89724,2.963861 3.14268,3.248505 6.58344,0.266188 15.5685,3.464539 19.38038,6.898705 1.40509,1.26586 3.09259,2.30157 3.75,2.30157 2.08821,0 1.2936,1.5107 -1.73589,3.30027 -2.1048,1.24334 -3.13055,1.40888 -3.63838,0.58719 -0.48984,-0.79257 -0.99144,-0.63641 -1.63191,0.50805 -0.8123,1.45149 -1.39413,1.25053 -4.78642,-1.65314 -4.02886,-3.44856 -9.20151,-4.66001 -11.55553,-2.70634 -0.71952,0.59714 -1.9041,0.9701 -2.6324,0.82879 C 228.9114,103.4937 225,104.97289 225,106.06739 c 0,0.91051 2.73866,1.34208 6.25,0.98491 3.50733,-0.35677 2.21252,6.27292 -2.27272,11.63688 -2.2125,2.64595 -4.48024,5.37332 -5.03943,6.06082 -1.16039,1.42666 -3.70739,1.45597 -9.43785,0.1086 z m -8.37238,-7.95199 c -1.17671,-1.26305 -2.66327,-1.91504 -3.57164,-1.56647 -0.85579,0.3284 -1.55598,0.19871 -1.55598,-0.28819 0,-0.48691 0.5625,-1.11226 1.25,-1.38967 0.74674,-0.30132 0.54544,-0.53617 -0.5,-0.58333 -3.58064,-0.16154 -1.81603,3.8136 2.75,6.19492 3.58677,1.8706 4.43136,0.6422 1.62762,-2.36726 z"
       id="path3342"
       inkscape:connector-curvature="0" />
    <path
       style="fill:#2f2826"
       d="M 67.568196,121.96945 C 61.039411,117.02959 57.334089,109 61.583333,109 c 2.384179,0 1.095234,-2.45086 -1.488116,-2.82957 -1.463154,-0.21449 -2.057806,-0.82554 -1.703057,-1.75 0.836249,-2.17923 -5.25694,-1.80026 -9.14216,0.56861 -2.509765,1.53023 -3.25,2.6682 -3.25,4.99626 0,1.65809 -0.45,3.0147 -1,3.0147 -0.55,0 -1,-0.9 -1,-2 0,-2.00414 -1.917971,-2.55972 -7.75,-2.24492 -6.06374,0.3273 -0.09897,-5.09276 9.172207,-8.3346 C 49.229421,99.089215 53.134778,98 54.100779,98 c 0.966,0 2.510354,-0.75399 3.431897,-1.675533 1.448039,-1.448039 1.966889,-1.490663 3.821428,-0.313933 1.255835,0.796845 5.126813,1.396491 9.332749,1.44572 3.95277,0.04627 7.51527,0.412535 7.916667,0.813933 C 79.004917,98.671584 80.201402,99 81.262375,99 c 5.43944,0 19.449585,12.42558 18.289436,16.22088 -0.383173,1.25352 -0.739083,2.88039 -0.790911,3.61527 -0.175598,2.48985 -4.46829,4.21803 -12.879298,5.18504 -12.389914,1.42447 -13.950079,1.24967 -18.313406,-2.05174 z m 25.562402,-3.59293 c 1.378721,-0.75859 1.525604,-5.41696 0.20535,-6.51267 -0.761354,-0.63187 -1.517104,-0.97223 -1.679445,-0.75635 C 90.838258,112.19558 87,119.17616 87,119.57621 c 0,0.44882 4.864623,-0.50313 6.130598,-1.19969 z M 217.5,122.07611 c -3.29372,-0.63251 -7.5,-3.08656 -7.5,-4.37567 0,-0.45016 0.40285,-0.5695 0.89522,-0.2652 0.49236,0.3043 1.16149,-0.14064 1.48694,-0.98875 0.45526,-1.18639 1.43154,-1.38447 4.23325,-0.85886 2.86158,0.53683 3.54368,0.38643 3.18473,-0.70224 -0.25124,-0.76196 -1.45829,-1.53237 -2.68235,-1.712 -1.26936,-0.18629 -2.63237,-1.39665 -3.17244,-2.81714 -1.0485,-2.75775 -4.335,-2.56406 -6.66383,0.39274 -1.05851,1.34395 -1.35389,1.19087 -2.25,-1.16607 -3.23647,-8.51259 0.45622,-11.908192 15.46848,-14.22398 4.60898,-0.71098 18.05342,0.680995 16.40676,1.698682 -0.76458,0.472538 -2.40638,0.604101 -3.64845,0.292361 -2.46315,-0.618211 -3.13984,1.368484 -1.14544,3.362887 1.80393,1.80393 0.12897,3.1403 -3.56827,2.84694 -2.27588,-0.18058 -3.62864,0.21681 -3.99589,1.17384 -0.74561,1.94304 0.19037,3.26635 2.31031,3.26635 0.95754,0 2.28098,0.54 2.94098,1.2 0.93333,0.93333 1.2034,0.87778 1.21531,-0.25 0.013,-1.23293 0.15931,-1.22545 0.97717,0.05 1.76386,2.7507 -1.2164,8.23357 -5.49248,10.10468 -1.1,0.48133 -2.9,1.47643 -4,2.21134 -1.1785,0.78735 -3.23225,1.09956 -5,0.76009 z M 230.23469,113.5 c 0.40408,-0.55 0.70605,-1.45 0.67105,-2 -0.035,-0.55 -0.3003,-0.40842 -0.58956,0.31462 -0.28926,0.72305 -1.60374,1.72441 -2.92105,2.22525 -1.31732,0.50085 -2.39513,1.66651 -2.39513,2.59037 0,1.69202 3.01752,-0.1124 5.23469,-3.13024 z M 223.5,113 c -0.33992,-0.55 -1.04148,-1 -1.55902,-1 -0.51754,0 -0.94098,0.45 -0.94098,1 0,0.55 0.70156,1 1.55902,1 0.85746,0 1.2809,-0.45 0.94098,-1 z m -16.5,1.5 c 0,-0.825 0.17686,-1.5 0.39301,-1.5 0.21616,0 0.65203,0.675 0.96862,1.5 0.31658,0.825 0.13972,1.5 -0.39301,1.5 C 207.43588,116 207,115.325 207,114.5 Z m 32,-17.559017 c 0,-0.582459 0.45,-0.780902 1,-0.440983 0.55,0.339919 1,0.816476 1,1.059017 C 241,97.801558 240.55,98 240,98 c -0.55,0 -1,-0.476558 -1,-1.059017 z"
       id="path3340"
       inkscape:connector-curvature="0" />
  </g>
</svg>
